<svg xmlns="http://www.w3.org/2000/svg" version="1.1" viewBox="-5.0 -10.0 110.0 135.0">
 <path d="m92.285 56.145-6.7812-4.1836v-9.8008c0-0.62891-0.38281-1.1953-0.96484-1.4336l-13.875-5.6914c1.2969-0.42188 2.2266-1.5586 2.3828-2.9102l0.88672-15.445c0.039062-0.66797-0.35547-1.2812-0.97266-1.5312l-20.934-8.3242c-0.80078-0.31641-1.6953-0.28516-2.4688 0.085937-0.14062 0.11328-26.266 12.641-26.395 12.719l-10.082 4.8711c-0.43359 0.18359-0.75781 0.55859-0.875 1.0117-0.050781 0.16797-0.070312 0.33984-0.0625 0.51562l1.2188 18.098h0.003907c0.039062 0.60156 0.42578 1.1289 0.99219 1.3438l21.457 8.2109c0.48047 0.16016 1.0117 0.097656 1.4375-0.17578l4.9297-2.7188 0.17969 0.75781c-3.7344 1.9492-7.2461 3.8789-10.684 5.8867-1.0391 0.60547-2.0547 1.2109-3.0664 1.8164l-15.992-9.457c-1.2539-0.72656-2.793-0.76562-4.0781-0.10156-1.2891 0.66406-2.1523 1.9414-2.2852 3.3828-0.20703 5.7109 4.9102 9.5156 12.973 12.074-1.9062 1.2578-3.8164 2.5391-5.7773 3.9062-0.83203 0.60156-1.3164 1.5703-1.293 2.5977 0.019532 1.0234 0.54297 1.9727 1.3984 2.5391 4.6445 3.0469 9.293 6.0938 13.941 9.1328 4.6484 3.043 9.293 6.0859 13.941 9.1328l-0.003906 0.003906c0.92969 0.60938 2.0195 0.9375 3.1328 0.9375 0.96875 0 1.9258-0.25 2.7695-0.72656 9.6758-5.418 19.027-11.398 28-17.914 5.8359-4.2188 11.668-8.7969 17.336-13.609 0.74609-0.64844 1.1406-1.6133 1.0625-2.5977-0.074219-0.98438-0.61328-1.8789-1.4531-2.4023zm-30.168-6.5273c-2.375-0.96484-14.402-5.8633-16.508-6.7188l15.668-8.3633 18.766 7.6953zm-15.984-22.895-18.152-5.9648 13.375-6.457 17.848 6.5312zm15.465-3.5703-0.53906 8.2734c0.027344-0.5625-12.965 6.7188-13.289 6.8047l0.003907-8.8438zm-1.0195 29.188 0.14844 14.855-12.273-6.4219c-0.53516-0.28125-0.92578-0.78516-1.0625-1.375l-3.2227-13.738zm21.82-7.7227v10.812l0.003906-0.003907c0 0.36328-0.19141 0.69531-0.5 0.88281l-18.07 10.758-0.14844-14.738zm-18.293-12.27 0.69141-10.637 5.8984-2.6602-0.6875 12.801-3.0234 1.6758zm-13.227-22.645 17.535 6.9766-5.168 2.3281-18-6.5859zm-26.934 12.992 18 5.9141-5.6797 2.5625-18.32-5.5781zm4.4844 13.172h-0.003907c-0.62891-1-1.7109-1.6328-2.8906-1.6914-1.1836-0.058593-2.3203 0.46484-3.0469 1.3984l-4.8828-6.8398 15.871 4.832-3.9883 4.082zm-8.3125 1.7148-3.8594 3.2734-0.64453-9.5859zm5.0664-0.22656h-0.003906c0.085937-0.078125 0.20312-0.11328 0.31641-0.09375 0.11328 0.019531 0.21094 0.089843 0.26562 0.19141l6.9883 11.734-14.832-5.6758zm5.9492 3.0469 3.6914-3.7773v9.9727zm6.793 9.1875-0.003906-15.766 6.75-3.043v9.1055l-3.4375 1.8359h-0.003906c-0.52734 0.28516-0.84766 0.84766-0.81641 1.4492-0.003906 0.089844 0.050782 0.19531 0.046876 0.26953l0.98828 4.2031zm-28.562 4.5117c-0.25391-1.1562 0.54297-2.2266 1.6797-1.6445l43.035 25.445c-3.4492 0.63281-6.9688 0.76953-10.453 0.40234-8.3164-0.5-13.754-2.9648-12.527-11.172 0.12109-0.78125-0.089844-1.5781-0.57812-2.1992-0.5-0.64062-1.2422-1.0508-2.0508-1.1328-11.945-1.2227-18.652-5.8047-19.105-9.6992zm64.156 18.141c-8.875 6.4453-18.125 12.363-27.699 17.719-0.83984 0.47266-1.875 0.43359-2.6797-0.097657-9.3086-6.1055-18.582-12.176-27.91-18.273 2.7656-1.918 5.4258-3.6992 8.125-5.4414 1.4844 0.28516 3.0352 0.51953 4.6523 0.67969-1.625 12.531 8.7734 14.648 19.414 14.777 3.1094-0.003907 6.207-0.36328 9.2305-1.0703 0.9375-0.21094 1.6523-0.97656 1.8008-1.9258s-0.29688-1.8945-1.1211-2.3867l-25.676-15.18c0.53125-0.3125 1.0469-0.625 1.582-0.9375 3.1797-1.8555 6.4258-3.6484 9.8516-5.4453l1.2773 5.4492 0.003906-0.003906c0.34375 1.4688 1.3086 2.7148 2.6445 3.4141l14.512 7.5938c0.48828 0.28516 1.0898 0.28125 1.5742-0.003906l20.387-12.137c1.1914-0.72266 1.9414-1.9922 1.9922-3.3828l5.1875 3.1914c-5.6055 4.7578-11.375 9.2891-17.148 13.461z"/>
</svg>