<svg xmlns="http://www.w3.org/2000/svg" version="1.1" viewBox="-5.0 -10.0 110.0 135.0">
 <g>
  <path d="m97.43 37.125c-0.18359-0.94141-0.22656-1.8242-0.26953-2.6758-0.078125-1.5508-0.15625-3.1523-1.0977-4.9219-0.11328-0.21094-0.28125-0.52344-0.5-0.87109 0.054688-0.48047-0.23047-0.94531-0.71484-1.0781-0.027344-0.007813-0.050781 0-0.078125-0.003906-0.55859-0.65234-1.2734-1.2891-2.1875-1.6445 0.33984-0.60547 0.71484-1.2461 1.082-1.8789 0.63281-1.082 1.2852-2.1992 1.7539-3.1328 0.12891-0.25391 0.14453-0.55469 0.035156-0.81641-0.10547-0.26562-0.31641-0.47266-0.58594-0.57031-0.51563-0.1875-1.0273-0.46484-1.5742-0.76172-0.58594-0.31641-1.1875-0.64453-1.8398-0.87891-0.39844-0.14453-0.84766-0.023437-1.1172 0.30469-0.59375 0.72656-1.1133 1.5-1.6172 2.2461-0.36719 0.54297-0.71875 1.0664-1.0938 1.5664-1.8125-0.54297-3.0352-0.34375-4.7852-0.054687l-0.46484 0.074219c-0.89844 0.14453-1.9766 0.22656-3.1172 0.31641-2.9062 0.22656-6.1992 0.48438-8.3672 1.875-0.84375 0.54297-1.5312 0.96484-2.1758 1.3555-5.9453-2.5625-11.234-4.1992-17.348-3.875-0.72266 0.035156-1.2461-0.027344-1.8516-0.10156-0.51953-0.0625-1.1133-0.13672-1.8516-0.13672-0.37891 0-0.69922-0.019532-1-0.035157-0.78125-0.042969-1.5156-0.085937-2.5742 0.19141-0.6875 0.17969-1.3359 0.30859-1.9766 0.44141-0.94141 0.19141-1.9141 0.39062-2.957 0.72266-0.94922 0.30469-1.8555 0.52344-2.7305 0.73828-1.6836 0.41016-3.2734 0.79688-5.0391 1.7031-0.57031 0.29297-1.1211 0.49609-1.7031 0.71484-0.91016 0.33984-1.8555 0.69141-2.8164 1.3828-0.56641 0.40625-1.0898 0.80859-1.5977 1.1953-1.5234 1.1602-2.8398 2.1641-4.6992 2.8984-1.5859 0.625-2.3594 1.5508-3.043 2.3672-0.51953 0.62109-1.0156 1.2109-1.8867 1.7422-1.8945 1.1523-2.5547 2.1602-3.4688 3.5508-0.23828 0.35938-0.49609 0.75391-0.80469 1.1953-0.92969 1.3203-1.3945 1.918-2.4102 3.1602-0.23438 0.28906-0.50781 0.55078-0.79297 0.82422-0.71484 0.6875-1.5273 1.4688-1.7422 2.7461-0.066406 0.39062-0.125 0.70703-0.17969 0.98438-0.16406 0.86719-0.27344 1.4375-0.27344 2.7148v2.25c-0.40234 0.21094-0.79297 0.35156-1.1992 0.5-0.60547 0.22266-1.293 0.47266-2.0547 0.96875-0.42188 0.27344-0.57422 0.81641-0.35938 1.2695 0.30469 0.63672 0.50391 1.2539 0.71484 1.9102 0.22266 0.6875 0.45313 1.3984 0.8125 2.1562 0.125 0.26562 0.35938 0.46094 0.64453 0.53516 0.28125 0.074219 0.58594 0.023438 0.82422-0.14062 0.78516-0.53516 1.3984-1.0508 1.9922-1.5469 0.37891-0.31641 0.75781-0.62109 1.1602-0.92969 0.007813 0 0.015625 0.003906 0.027344 0.003906 0.17578 0 0.35156-0.046875 0.51172-0.14062l0.03125-0.019531c0.015625 0.15234 0.03125 0.30078 0.042969 0.45703 0.066406 0.75781 0.13672 1.543 0.375 2.2422 0.48047 1.4102 1.2539 2.2188 2.0703 3.0742 0.20312 0.21094 0.41406 0.43359 0.63672 0.67969 1.0039 1.1133 2.0586 1.4102 3.0781 1.6953 0.46094 0.12891 0.9375 0.26172 1.4375 0.48047 1.4531 0.63281 2.5234 1.2305 3.7617 1.9258 0.51953 0.28906 1.0625 0.59375 1.6641 0.91797 1.375 0.73828 2.4844 0.69922 3.5625 0.66797 0.56641-0.019531 1.1484-0.035156 1.8125 0.058594 1.0391 0.14844 2.0117 0.27734 2.9531 0.40234 1.4766 0.19922 2.8945 0.38672 4.4219 0.62109l-0.34375 7.6602c-0.066406 1.5312 0.42578 2.8359 1.4258 3.7734 1.1602 1.0859 2.9453 1.6367 5.1016 1.6055h0.007812 0.007813c0.37109-0.003906 0.75-0.023438 1.1445-0.0625 1.3203 0.19141 2.5781 0.16016 3.793 0.13281 1.4414-0.03125 2.8008-0.070312 4.1836 0.26172 2.3672 0.57031 4.8086 1.082 7.2031 1.082 1.875 0 3.7227-0.3125 5.4844-1.1562 0.86328-0.41406 1.6797-0.68359 2.4688-0.94141 1.3047-0.42969 2.6523-0.875 4.0742-1.9336 0.86328-0.64453 1.6133-1.3711 2.3359-2.0742 1.293-1.2578 2.5117-2.4414 4.1602-2.8789 3.6602-0.96875 5.8789-3.3672 8.2227-5.9062l0.26953-0.29297c3.1484-3.4062 6.0195-7.9492 8.5273-13.512l0.24219-0.53125c2.7148-6.0234 5.5195-12.234 4.2305-18.84zm-89.473 13.574c0-1.0859 0.085938-1.5312 0.23828-2.3438 0.054688-0.28906 0.11719-0.62109 0.1875-1.0273 0.097657-0.59375 0.50391-1.0078 1.1562-1.6328 0.31641-0.30469 0.64453-0.62109 0.95703-1 1.0312-1.2656 1.5391-1.9141 2.4961-3.2734 0.32422-0.46094 0.59766-0.87109 0.84375-1.25 0.85547-1.3008 1.3281-2.0195 2.8398-2.9375 1.1562-0.70312 1.8047-1.4805 2.3789-2.168 0.63281-0.75781 1.1328-1.3555 2.2461-1.793 2.1172-0.83594 3.6055-1.9688 5.1758-3.168 0.49219-0.375 1.0039-0.76562 1.5508-1.1602 0.74609-0.53516 1.4883-0.8125 2.3477-1.1328 0.60938-0.22656 1.2422-0.46094 1.918-0.80859 1.5586-0.80078 3.0352-1.1602 4.6016-1.5391 0.91016-0.22266 1.8516-0.44922 2.8672-0.77344 0.9375-0.30078 1.8164-0.48047 2.7461-0.66797 0.67578-0.13672 1.3594-0.27734 2.082-0.46484 0.75391-0.19531 1.2617-0.16797 1.9609-0.12891 0.33594 0.019531 0.69141 0.039062 1.1094 0.039062 0.61719 0 1.1016 0.058594 1.6094 0.12109 0.64062 0.078125 1.3047 0.16016 2.1992 0.11328 5.293-0.27344 9.9805 1.0273 15.141 3.1562-0.17969 0.10938-0.36719 0.23047-0.55859 0.34766-0.074219-0.023437-0.14453-0.054687-0.22656-0.058593-0.89453-0.050782-1.5156 0.039062-2.0625 0.11719-0.59766 0.082031-1.0703 0.15234-1.8594 0.050781-0.5625-0.070312-1.1641-0.18359-1.7852-0.30078-1.6602-0.30859-3.5469-0.66406-5.1719-0.33203-1.7422 0.35156-3.4023 0.91797-5.0078 1.4648-2.0625 0.70312-4.0117 1.3633-6.0898 1.6055-2.5859 0.29688-5.0039 1.0039-7.3398 1.6836-1.2539 0.36328-2.5469 0.74219-3.8555 1.0547-4.082 0.96875-7.7852 3.1562-11.363 5.2695-1.418 0.83594-2.7539 1.625-4.1211 2.3516-0.48828 0.25781-0.67578 0.86328-0.41406 1.3516 0.17969 0.33984 0.52734 0.53125 0.88672 0.53125 0.15625 0 0.31641-0.035156 0.46875-0.11719 1.4062-0.74609 2.8281-1.582 4.2031-2.3945 3.4531-2.0391 7.0234-4.1445 10.812-5.0469 1.3555-0.32422 2.6758-0.70703 3.9531-1.0781 2.3633-0.6875 4.5938-1.3398 7.0078-1.6172 2.2891-0.26172 4.4336-0.99219 6.5039-1.6992 1.5469-0.52734 3.1445-1.0703 4.7617-1.3984 1.2539-0.25391 2.8555 0.046875 4.4102 0.33594 0.66406 0.125 1.3086 0.24219 1.9023 0.31641 0.35938 0.046875 0.66797 0.058594 0.95313 0.058594-0.03125 0.019531-0.0625 0.039062-0.09375 0.054687-1.6953 1.0195-3.3008 1.9805-5.0273 3.4609-0.12109 0.10547-0.23047 0.19922-0.34766 0.30078-0.15625-0.10547-0.33984-0.18359-0.54297-0.18359-0.64844 0-1.125-0.21094-1.6758-0.45703-0.80859-0.35938-1.8125-0.80469-3.2266-0.34766-1.418 0.46094-2.6992 1.0898-3.9375 1.6953-2.4102 1.1836-4.4922 2.207-7.0078 1.7812-4.25-0.71484-7.7773 0.035156-11.438 2.4375-0.67187 0.4375-1.3203 0.90234-1.9688 1.3594-2.3477 1.6641-4.5625 3.2344-7.2812 3.4141-0.33984 0.023437-0.64453 0.023437-0.91797 0.027344-1.1836 0.011718-2.3047 0.019531-3.3633 1.5938-1.9258 2.8516-4.5547 5.1992-7.6094 6.7812-0.085938 0.046874-0.15234 0.10937-0.21875 0.17578zm1.4766 4.2656c-0.058594 0.023437-0.125 0.027344-0.17969 0.0625-0.10156 0.0625-0.14453 0.078125-0.17578 0.082031-0.26562 0.03125-0.5625 0.089844-1.0352 0.41406-0.78516 0.53516-1.3945 1.0508-1.9883 1.543-0.27734 0.23047-0.55078 0.46094-0.83203 0.68359-0.089844-0.25391-0.17188-0.50781-0.25391-0.76953-0.13672-0.41797-0.27344-0.84375-0.44141-1.2852 0.30859-0.14062 0.60938-0.25391 0.92578-0.36719 0.30469-0.10938 0.62891-0.23047 0.97266-0.38281 0.12109-0.023437 0.23828-0.058593 0.34766-0.12891l0.63672-0.39844c0.03125-0.019531 0.0625-0.035157 0.097656-0.058594 0.007813-0.003906 0.011719-0.011719 0.015626-0.015625l1.8477-1.1523c0.37109 0.26562 0.66016 0.67188 0.88281 1.2812zm8.0117-9.3477c0.47266-0.69922 0.6875-0.69922 1.7227-0.71094 0.30859-0.003906 0.64844-0.007812 1.0312-0.03125 3.2773-0.21875 5.832-2.0273 8.3047-3.7773 0.62891-0.44531 1.2617-0.89453 1.9102-1.3203 3.25-2.1328 6.2461-2.7695 10.012-2.1367 3.1523 0.52734 5.7305-0.73438 8.2227-1.9609 1.1758-0.57813 2.3906-1.1719 3.6719-1.5898 0.65234-0.21484 1.043-0.0625 1.7969 0.27344 0.34375 0.15234 0.73437 0.32031 1.1875 0.44531-1.1602 1.0703-2.1484 2.0703-3.5391 3.5625-0.73828 0.79297-1.3984 1.4219-2.0352 2.0234-0.6875 0.65234-1.3516 1.2969-2.0352 2.0664-0.51953-0.12109-1.0547 0.19141-1.1992 0.71484-0.023438 0.019531-0.17969 0.078125-0.50781 0.035157-0.26953-0.03125-0.53906 0.039062-0.75 0.21094-1.3555 1.0781-2.8945 1.1602-4.5273 1.25-1.793 0.097656-3.6445 0.19922-5.2461 1.6133l-0.27734 0.24609c-1.0156 0.90234-1.9766 1.7578-3.1602 1.9297-0.58594 0.082031-1.2461-0.11328-1.9414-0.32031-0.74219-0.22266-1.5898-0.47266-2.4844-0.41406-1.4141 0.097657-2.5625 0.77344-3.5703 1.3711-1.1133 0.66016-2.0742 1.2266-3.2461 1.0312-2.3828-0.39844-4.8477 0.054688-6.9375 1.2695-0.47656 0.27734-0.63672 0.89062-0.35938 1.3672 0.1875 0.31641 0.51953 0.49609 0.86328 0.49609 0.17188 0 0.34375-0.042969 0.50391-0.13672 1.6602-0.96875 3.7031-1.3438 5.5977-1.0273s3.3281-0.53516 4.5938-1.2852c0.89844-0.53125 1.7461-1.0352 2.6875-1.0977 0.53125-0.03125 1.1367 0.14453 1.7734 0.33594 0.83594 0.25 1.7812 0.53516 2.8047 0.38281 1.7734-0.26172 3.0625-1.4062 4.1992-2.4141l0.27344-0.24219c1.082-0.95703 2.4492-1.0312 4.0352-1.1172 1.332-0.074218 2.793-0.16016 4.2188-0.80859-1.0156 1.3359-1.9062 2.5273-2.9805 4.2852-0.40625 0.66406-0.77344 1.1641-1.1289 1.6445-0.65625 0.88672-1.2734 1.7227-1.8281 3.2305-0.19922 0.54688-0.38672 0.99609-0.56641 1.4102-1.0391 0.039063-1.9805 0.12109-2.8867 0.20703-1.7188 0.16016-3.3398 0.3125-5.3203 0.066406-0.91016-0.11328-1.8047-0.42969-2.7539-0.76562-1.4883-0.52734-3.0312-1.0703-4.7461-0.84375-3.0742 0.39844-5.2109 0.39062-7.6758-0.80859-0.91406-0.44141-1.9727-0.53906-2.9531-0.30469-0.20312-0.60938-0.56641-1.3906-1.2188-2.0312 2.5469-1.6445 4.7617-3.7969 6.4648-6.3242zm18.25 20.609c-0.30859 0.73438-0.61328 1.5-0.70703 2.5-1.4688-0.22266-2.8398-0.40625-4.2656-0.59766-0.9375-0.125-1.9023-0.25781-2.9414-0.40234-0.83594-0.11719-1.5391-0.09375-2.1602-0.074218-0.95312 0.03125-1.6484 0.054687-2.5508-0.42969-0.58984-0.31641-1.125-0.61328-1.6328-0.89844-1.2305-0.6875-2.3945-1.3398-3.9375-2.0117-0.625-0.27344-1.1953-0.43359-1.6992-0.57031-0.91016-0.25391-1.5156-0.42188-2.1289-1.1055-0.23438-0.26172-0.46094-0.49609-0.67578-0.72266-0.74609-0.77734-1.2812-1.3438-1.6211-2.3359-0.035156-0.10547-0.066406-0.22266-0.09375-0.34375 1.668 1.4688 3.5938 2.8867 5.4844 3.6367 1.6094 0.64062 3.2773 0.80469 4.8867 0.96484 1.375 0.13672 2.6758 0.26953 3.8594 0.67969 0.48438 0.16797 0.95312 0.33984 1.4062 0.50781 1.8789 0.69141 3.6836 1.3555 5.8203 1.3555 0.76953 0 1.5781-0.085937 2.4531-0.28516 0.27734-0.0625 0.38672-0.054688 0.55859 0-0.015625 0.039062-0.035156 0.085938-0.054688 0.13281zm-0.94922-2.0898c-2.7266 0.625-4.668-0.089844-7.1328-0.99609-0.46484-0.17188-0.94531-0.34766-1.4414-0.51953-1.4062-0.48438-2.8828-0.63281-4.3125-0.77734-1.543-0.15234-3-0.30078-4.3516-0.83594-2.2383-0.88672-4.6211-2.9141-6.4258-4.6953l0.17188-0.10156c0.26562 0.097656 0.5625 0.09375 0.82422-0.054688 0.65625-0.36719 1.5195-0.39062 2.1953-0.0625 2.9062 1.4141 5.4297 1.4336 8.8086 0.99219 1.2422-0.16406 2.4961 0.27734 3.8203 0.74609 1.0078 0.35547 2.0469 0.72266 3.1719 0.86328 0.85547 0.10547 1.6367 0.14844 2.3828 0.14844 1.1758 0 2.2578-0.10156 3.375-0.20703 0.58984-0.054688 1.1992-0.10938 1.832-0.14844-0.17578 0.46875-0.35156 0.98438-0.52734 1.6211-0.30859 1.1211-0.42969 1.8867-0.55859 2.6914-0.066406 0.41406-0.13672 0.85547-0.23828 1.3789-0.35547-0.11719-0.82812-0.21875-1.5938-0.042969zm6.0781 17.633c-1.5195-0.015625-2.7578-0.38281-3.4922-1.0664-0.57812-0.53906-0.83594-1.2656-0.79297-2.2227l0.33984-7.5469c-0.125-0.22266 0.17969-1.0977 0.082032-1.8438 0.035156-0.78516 0.28906-1.3867 0.58203-2.0859 0.10938-0.26562 0.23047-0.55078 0.33984-0.85547 0 0 0.38672-1.0859 0.34375-1.1875 0.15234-0.73438 0.24609-1.3125 0.33203-1.8516 0.125-0.78125 0.23047-1.457 0.51172-2.4727 0.33594-1.2227 0.66406-1.9609 1.043-2.8203 0.25781-0.57812 0.54688-1.2344 0.86328-2.1016 0.45313-1.2383 0.94141-1.8984 1.5586-2.7344 0.36328-0.49219 0.77734-1.0508 1.2266-1.7891 1.0625-1.7383 1.9062-2.8555 2.9805-4.2695 0.39844-0.52734 0.82422-1.0859 1.2891-1.7188 1.0664-1.4453 1.9961-2.332 3.0742-3.3555 0.66016-0.625 1.3398-1.2734 2.1211-2.1133 2.1016-2.2539 3.2422-3.3516 5.5664-5.3398 1.5977-1.3672 3.1328-2.2891 4.7578-3.2656 0.79688-0.48047 1.6211-0.97266 2.4922-1.543 1.2031-0.78516 2.0898-1.3203 2.9844-1.8594 0.28125-0.03125 0.53516-0.18359 0.70312-0.42578 0.66016-0.40234 1.3711-0.83984 2.2422-1.3984 1.7422-1.1211 4.7695-1.3555 7.4414-1.5625 1.1836-0.09375 2.3008-0.17969 3.2812-0.33594l0.46875-0.074218c1.8867-0.30859 2.7422-0.44922 4.4688 0.19141 0.40234 0.14844 0.85156 0.027344 1.1211-0.30469 0.59766-0.73047 1.1172-1.5039 1.625-2.2539 0.35547-0.52344 0.69141-1.0273 1.0508-1.5117 0.30078 0.14453 0.60156 0.30859 0.91406 0.47656 0.26172 0.14062 0.52344 0.28516 0.79688 0.42188-0.36719 0.66406-0.78906 1.3867-1.2031 2.0938-0.63281 1.0859-1.2891 2.207-1.7617 3.1445-0.15234 0.30859-0.14062 0.67188 0.039063 0.96875 0.17969 0.29688 0.49609 0.47656 0.83984 0.48047 0.83984 0.011719 1.6211 0.5 2.3633 1.4609-0.11719 0.49609-0.22656 0.98047-0.32812 1.4531-0.14844 0.69922-0.30078 1.4023-0.50781 2.1758l-0.26953 0.98047c-0.41016 1.4727-0.70312 2.5391-0.94922 4.3555-0.125 0.91797-0.054687 1.7148 0.007813 2.4141 0.089844 1.0312 0.15234 1.7773-0.35547 2.6445-0.78906 1.3438-1.5117 2.8789-2.207 4.3594-1.1875 2.5312-2.418 5.1484-4.0508 6.9883-0.73437 0.82422-1.3711 1.5859-1.9805 2.3086-1.4336 1.6992-2.668 3.168-4.582 4.8516-1.2266 1.0781-2.2695 2.168-3.2773 3.2227-1.8672 1.9492-3.6328 3.7969-6.2109 5.1445-1.4023 0.73438-2.5586 1.4375-3.6758 2.1133-1.9062 1.1562-3.5508 2.1562-5.9531 3.0547-1.0859 0.40234-2.0391 0.84766-2.9648 1.2734-1.5664 0.72266-3.043 1.4023-4.8711 1.7656-0.69141 0.13672-1.3438 0.15625-1.9766 0.17969-1.1719 0.039063-2.3828 0.078126-3.7422 0.8125-0.57031 0.30859-1.5078 0.82422-2.4453 1.3438-0.84766 0.45703-1.6719 0.91406-2.2539 1.2305zm50.551-26.645-0.24219 0.53516c-2.4219 5.3633-5.1719 9.7305-8.1758 12.977l-0.26953 0.29297c-2.3281 2.5195-4.168 4.5117-7.2656 5.332-2.1523 0.57031-3.6211 1.9961-5.043 3.3789-0.67578 0.65625-1.3789 1.3398-2.1367 1.9062-1.1602 0.86328-2.2461 1.2227-3.5039 1.6367-0.84766 0.28125-1.7266 0.57031-2.7031 1.0352-3.4258 1.6406-7.4883 0.86328-11.359-0.0625-1.1484-0.27734-2.2578-0.33984-3.3359-0.33984-0.46094 0-0.91406 0.011719-1.3672 0.023438-0.39062 0.011718-0.77344 0.015625-1.1562 0.019531 0.64844-0.35938 1.2461-0.6875 1.6523-0.90625 0.94141-0.51172 1.7891-0.53906 2.8555-0.57422 0.67969-0.023437 1.4453-0.046875 2.2969-0.21484 2.0625-0.40625 3.6445-1.1367 5.3242-1.9102 0.89063-0.41016 1.8125-0.83594 2.8242-1.2148 2.582-0.96484 4.3828-2.0586 6.293-3.2188 1.0938-0.66406 2.2227-1.3516 3.5664-2.0547 2.8672-1.5039 4.7422-3.4609 6.7266-5.5312 0.98047-1.0234 1.9922-2.0781 3.1523-3.1016 2.0273-1.7812 3.3086-3.3047 4.7891-5.0664 0.59766-0.71094 1.2266-1.457 1.9453-2.2695 1.8242-2.0547 3.1172-4.8047 4.3633-7.4648 0.70703-1.5078 1.3789-2.9336 2.1211-4.1953 0.83203-1.418 0.72656-2.6445 0.625-3.8281-0.058593-0.65625-0.10937-1.2773-0.015624-1.9727 0.22656-1.6797 0.49219-2.6367 0.89453-4.0859l0.27344-0.99219c0.12891-0.47656 0.23438-0.92578 0.33594-1.3672 0.22656 0.86328 0.26953 1.7227 0.31641 2.6641 0.046875 0.92187 0.09375 1.875 0.30469 2.9609 1.1758 5.9727-1.5 11.891-4.0859 17.609z"/>
  <path d="m50.141 76.469c0.12891 0.019531 0.26172 0.007812 0.39062-0.023438 1.6992-0.45703 3.293-0.92969 4.9375-1.418l1.4492-0.42969c2.1523-0.63281 3.8086-1.6523 5.4102-2.6367 1.043-0.64063 2.1211-1.3047 3.3516-1.8711 2.6562-1.2305 4.4688-3.3164 6.2188-5.3398 0.70312-0.8125 1.4336-1.6523 2.207-2.4297 0.5625-0.5625 1.0781-1.0586 1.5703-1.5312 1.457-1.3945 2.7148-2.5977 4.1211-4.5352 0.55469-0.76172 1.0586-1.4805 1.5547-2.1875 0.94922-1.3555 1.8438-2.6328 2.9609-4.0156 0.27734-0.33984 0.55859-0.67969 0.83594-1.0195 2.6055-3.1641 5.3047-6.4336 4.6641-10.746l-1.6445-11.117c-0.074219-0.51953-0.53906-0.88281-1.0625-0.85156-1.3555 0.097656-2.7305 0.035156-4.0625-0.019531-2.6211-0.11328-5.3281-0.23047-8.0156 0.82812-0.92969 0.36719-1.8125 0.57031-2.6602 0.76953-1.5078 0.35156-3.0664 0.71094-4.668 1.9531-1.1641 0.90234-2.3125 1.6836-3.4219 2.4414-1.9492 1.3281-3.7891 2.5859-5.6641 4.4023-6 5.8047-10.773 11.012-14.574 17.543-3.3867 5.8164-5.1719 12.516-5.1875 19.23-0.007812 0.050781 0 0.10156 0.003907 0.15625 0.003906 1.4023 0.078125 2.8047 0.23438 4.2031 0.046875 0.41406 0.17188 1.0078 0.6875 1.375 0.28125 0.19922 0.57812 0.26953 0.88281 0.26953 0.31641 0 0.64062-0.074219 0.95312-0.14844l0.23438-0.054687c0.91016-0.19922 1.6797-0.68359 2.3594-1.1094 0.19922-0.125 0.39453-0.25 0.59766-0.36328 1.9961-1.1562 3.5898-1.5547 5.3359-1.3242zm1.8828-3.8828c-0.15234 0.19141-0.32031 0.33984-0.51953 0.51172-0.050781 0.046875-0.10547 0.089844-0.15625 0.13672-0.24609-0.15234-0.46484-0.29688-0.67578-0.4375-0.48828-0.32422-0.99219-0.65625-1.7539-1.0508-1.8633-0.96484-3.4258-2.4258-4.5156-4.2227-0.19531-0.32422-0.20703-0.85547-0.22266-1.418-0.007813-0.28516-0.015626-0.57031-0.039063-0.84766-0.0625-0.64453 0.13281-1.2461 0.5-1.5273 0.15234 0.097656 0.32031 0.16016 0.50391 0.16406 0.09375 0.078125 0.17969 0.16406 0.24609 0.24609 0.074219 0.09375 0.15625 0.16797 0.24609 0.23047 0.18359 0.48438 0.71094 0.74609 1.2188 0.60156 0.03125-0.011718 0.070312-0.019531 0.10938-0.035156 0.5 1.7227 1.6797 3.0195 2.9609 4.4297 0.60156 0.66016 1.2227 1.3438 1.8594 2.1445 0.082032 0.10156 0.17969 0.1875 0.28906 0.25-0.003907 0.039062-0.003907 0.074219-0.003907 0.11328 0.007813 0.1875 0.0625 0.36328 0.16016 0.51172-0.074219 0.050781-0.14453 0.12109-0.20703 0.19922zm1.1289-2.5703c-0.60938-0.75-1.2109-1.4102-1.7461-2-2.0039-2.2031-3.1758-3.4922-2.5117-6.3945 0.96875 0.17188 1.9336 0.78125 2.1719 1.4531 0.74219 2.1133 2.6523 3.3672 5.0859 3.3125 0.089844-0.003907 0.25391 0.011719 0.44141 0.27344 0.023438 0.054688 0.058594 0.097656 0.09375 0.14453 0.35938 0.67187 0.33984 1.7695-0.046875 2.3672-0.55469 0.85547-1.5625 1.3281-2.5508 1.5391-0.24609-0.30859-0.57031-0.55078-0.9375-0.69531zm3.2031 2.6641-1.4531 0.42969c-0.24609 0.074219-0.48828 0.14453-0.73438 0.21484 0.13672-0.19922 0.25-0.41797 0.32031-0.65234 1.4492-0.30078 2.6562-1.0078 3.4727-1.9844 0.35937 0.32812 0.76953 0.59766 1.207 0.80469-0.86719 0.46875-1.7734 0.87891-2.8125 1.1875zm7.9375-4.3438c-0.015625 0.070312-0.007813 0.14062-0.007813 0.21484-0.91797 0.45703-1.7461 0.94141-2.5352 1.4258-0.097656-0.019531-0.19922-0.042968-0.30469-0.03125-0.95703 0.10938-1.957-0.35937-2.5078-1.1367-0.015625-0.023438-0.042969-0.035156-0.0625-0.058594 0.089844-0.54297 0.082031-1.1094-0.015625-1.6523l4.5977-0.50781c0.14844 0.38672 0.51172 0.63672 0.96094 0.63281 0 0.34766-0.03125 0.72266-0.125 1.1133zm2.1172-0.97656c0.019532-0.98047-0.17969-1.8828-0.62109-2.5781-0.24609-0.38672-0.55859-0.70703-0.92187-0.95312 0.26562-0.26953 0.53125-0.55469 0.80469-0.90234 0.45312-0.57812 0.71875-1.2812 0.79297-2.0039 0.035156-0.023437 0.074218-0.035156 0.10547-0.0625 0.9375 0.58203 1.9844 1.7969 3.0078 3.5078-0.99609 1.1211-1.9961 2.168-3.168 2.9922zm0.89453-28.176 1.6055-1.1133c0.33594-0.23047 0.59766-0.41016 1.6016 0.46484 0.88672 0.77344 1.8164 1.3906 2.7188 1.9922 0.61328 0.40625 1.2461 0.82812 1.8477 1.2891 0.78516 0.60156 1.2422 0.95703 1.5508 1.4375 0.027344 0.046875 0.050782 0.097656 0.082032 0.13672 0.16406 0.30078 0.28516 0.65625 0.39062 1.1484 0.27734 1.3008 0.39063 2.3594 0.52734 3.5898l0.058594 0.53906c-0.46484-0.15234-0.95312-0.26953-1.4766-0.32422-0.41016-1.4609-1.4883-2.7461-3.1055-3.6797l-5.9062-3.4219c0.25-0.55469 0.28906-1.2695 0.10547-2.0586zm15.637-0.375c-0.79297 0.38672-1.5742 0.82812-2.3398 1.2734-0.96094 0.55469-1.8789 1.0781-2.7773 1.4727-0.40625-0.44531-0.90625-0.84766-1.5312-1.3242-0.65234-0.5-1.3164-0.9375-1.957-1.3633-0.76563-0.50781-1.4844-1.0039-2.1719-1.5664 0.066407-0.64453 0.63281-1.2422 1.2734-1.3242 1.1328-0.14062 1.793-0.65625 2.3789-1.1094 0.3125-0.24609 0.61328-0.47656 1.0039-0.67188 1.0859-0.54687 2.2617 0.55078 3.8008 2.1523 0.19141 0.19922 0.38281 0.39844 0.57031 0.58594 0.51172 0.51953 0.98828 0.85156 1.3672 1.1172 0.16016 0.11328 0.30078 0.21484 0.42969 0.3125-0.050781 0.14453-0.070312 0.29688-0.046875 0.44531zm-10.844 7.5859c0.75781 0.4375 2.0195 1.3828 2.2461 2.8438l-2.5703 2.5703c-1.3594-0.59766-2.3477-1.5117-3.4688-2.5469-0.51563-0.47656-1.0508-0.97266-1.6484-1.4648l-3.2461-2.6797c0.39844-0.91797 1.25-1.9062 2.1406-2.5156zm-6.7109 2.9453c0.56641 0.46875 1.0742 0.9375 1.5625 1.3906 1.1484 1.0625 2.25 2.0703 3.7773 2.793 0.066407 1.0977-0.42187 2.0586-1.2578 2.6289-0.19922-0.023438-0.39453-0.058594-0.59375-0.058594-1.0742-0.95312-1.918-1.7656-2.8789-2.6875l-1.1484-1.1055c-0.36328-0.34766-0.71094-0.65625-1.0352-0.95312-1.0508-0.94922-1.8789-1.6992-2.668-3-0.30469-0.49609-0.75-0.91016-1.2539-1.1992 0.68359-0.10938 1.3398-0.37109 2.0234-0.67578zm-2.918 3.4883c0.31641 0.28516 0.64844 0.58594 1 0.92188l1.1445 1.0977c0.80859 0.77734 1.5312 1.4727 2.3828 2.2461-0.49609 0.27344-0.93359 0.65234-1.2773 1.1016-0.61719-0.85547-1.4062-1.2305-2.3047-1.6484-1.6953-0.78906-2.7539-1.707-3.9727-2.7695-0.74609-0.64844-1.5195-1.3203-2.4922-2.0117-0.0625-0.046875-0.13672-0.074219-0.20703-0.10156l1.3359-2.8477c0.027344-0.0625 0.050781-0.10938 0.19922-0.11719 0.39453-0.007813 0.89844 0.25391 1.1602 0.6875 0.9375 1.5469 1.9102 2.4258 3.0312 3.4414zm8.4844 9.9688c-0.91406-1.4297-2.0703-2.8516-3.3984-3.6602 0.28125-0.25781 0.625-0.44922 0.99219-0.51172 0.4375-0.070312 0.84375-0.21094 1.2266-0.37891 0.46094 0.15625 0.92969 0.42969 1.3555 0.8125 0.72266 0.65234 1.1641 1.4648 1.2383 2.1875-0.48828 0.51172-0.96094 1.0312-1.4141 1.5508zm3.3438-3.4492c-0.097656 0.09375-0.20312 0.19531-0.30469 0.29297-0.32813-0.74219-0.84375-1.4531-1.5195-2.0625-0.28516-0.25781-0.58594-0.47656-0.89453-0.66797 0.61719-0.73438 1.0195-1.6445 1.1289-2.6406 1.7773 0.58984 3.1016 1.1172 4.1055 2.5312-0.79688 0.89844-1.5977 1.6641-2.5156 2.5469zm3.8867-4.2695c-0.03125 0.042969-0.0625 0.078125-0.089844 0.12109-1.1836-1.4258-2.6484-2.1016-4.2266-2.6523l2.1992-2.2031c1.6875 0.20703 2.8789 1.0664 3.6328 2.5977-0.48438 0.69141-0.97656 1.3945-1.5156 2.1367zm5.4258-7.3203c-0.28516 0.34375-0.57031 0.69141-0.84766 1.0352-0.66016 0.81641-1.2383 1.5898-1.793 2.3594-0.35547-0.52344-0.76172-0.98047-1.2266-1.3633 0.023437-0.22266 0.035156-0.40234-0.019532-0.88281l-0.10938-0.99609c-0.14062-1.2812-0.26172-2.3906-0.55859-3.7852-0.066407-0.30469-0.14063-0.57422-0.22656-0.82422 0.63672-0.28906 1.2656-0.625 1.8828-0.97656l3.2617 3.1445c0.36328 0.35156 0.65625 0.53906 0.9375 0.68359-0.41797 0.53516-0.85547 1.0664-1.3008 1.6055zm4.293-8.1367c-0.023438 1.7461-0.74609 3.3398-1.7891 4.8945-0.33594-0.14844-0.47266-0.21484-0.75391-0.48438l-2.8438-2.7422c0.83203-0.46875 1.6406-0.88672 2.4375-1.1797 0.26172 0.046875 0.52344 0.078125 0.78906 0.078125 0.75391 0 1.4961-0.20312 2.1602-0.56641zm-1.3984-10.062 1.1562 7.8164c-0.078125 0.042969-0.16016 0.082031-0.22656 0.14844-0.52344 0.51562-1.3242 0.73047-2.0664 0.62109-0.48047-0.89453-1.0781-1.3242-1.668-1.7344-0.34766-0.24219-0.70703-0.49609-1.0938-0.88672-0.17969-0.18359-0.36328-0.37109-0.54688-0.56641-0.27344-0.28516-0.56641-0.58984-0.87891-0.89062 0.40234-0.10156 0.79687-0.23047 1.1758-0.41016 1.8906-0.88672 3.1484-2.5508 4.1484-4.0977zm-10.734-0.57812c1.5469-0.60938 3.1367-0.76172 4.7812-0.76172 0.78906 0 1.5938 0.035156 2.4102 0.070312 0.63672 0.027344 1.2852 0.050782 1.9414 0.0625-0.87109 1.3555-1.9414 2.8125-3.3945 3.4922-1.1133 0.52344-2.4727 0.53906-3.625 0.09375-0.71094-1.1211-1.7148-2.0469-2.8828-2.6797 0.25391-0.082031 0.50781-0.17187 0.76953-0.27734zm-10.359 4.957c1.1328-0.77344 2.3047-1.5742 3.5195-2.5117 0.86328-0.66797 1.7148-1.0117 2.6211-1.2656 0.13281 0.097656 0.28125 0.17188 0.45703 0.19141 1.4766 0.17188 2.8594 0.96484 3.8008 2.1133-0.50781 0.26953-0.88672 0.5625-1.2227 0.82031-0.50391 0.39453-0.80859 0.62891-1.3945 0.70312-1.2188 0.15234-2.2773 1.0117-2.7617 2.1211-0.73047-0.30078-1.6523-0.37891-2.6562 0.32031l-1.6914 1.168-3.543-1.625c0.9375-0.71094 1.8906-1.3672 2.8711-2.0352zm-5.4023 4.1875c0.28125-0.27344 0.56641-0.51562 0.85156-0.76953 0.054687 0.039062 0.10156 0.089843 0.16406 0.12109l4.0898 1.8789c0.019531 0.03125 0.023438 0.070312 0.042969 0.10156 0.054688 0.082031 0.13281 0.13672 0.20312 0.19531 0.085937 0.39062 0.074219 0.67969 0.023437 0.75391-1.5898 0.71094-3.1562 2.3633-3.8398 3.9961-0.046875 0.027344-0.082031 0.066406-0.125 0.10156l-0.050781 0.023438c-1.5508 0.69141-2.1914 0.97656-3.4102 0.27344l-2.9102-1.668c1.5547-1.6484 3.1953-3.3008 4.9609-5.0078zm-6.3516 6.5117c0.007812 0.003906 0.007812 0.011719 0.015625 0.011719l3.293 1.8867c0.19531 0.11328 0.38281 0.20312 0.57031 0.28516-0.55859 0.1875-1.0078 0.58594-1.2734 1.1445l-0.79297 1.6875c-0.33594-0.58594-0.77344-1.1289-1.3047-1.5938-0.70312-0.61328-1.5234-1.0469-2.3789-1.2812 0.60938-0.71484 1.2305-1.4297 1.8711-2.1406zm-3.3516 3.957c0.88672-0.007812 1.8047 0.32812 2.5508 0.97656 0.62891 0.54688 1.0586 1.2422 1.25 1.9688-0.089844-0.003906-0.17578-0.007812-0.27344-0.011718-0.70312-0.035156-1.3594-0.125-2.0547-0.21875-0.70703-0.097656-1.4375-0.19531-2.2266-0.23438-0.28906-0.011719-0.57031 0.097656-0.76953 0.30469-0.085938 0.089844-0.30469 0.23438-0.49609 0.36328-0.18359 0.12109-0.375 0.25781-0.55859 0.40234 0.82031-1.2148 1.6719-2.3984 2.5781-3.5508zm-2.5391 7.4336c0.40625-0.83203 0.79297-1.6133 0.99219-2.1289 0.074219-0.11719 0.42969-0.35156 0.63672-0.49219 0.14844-0.10156 0.30469-0.20312 0.44922-0.3125 0.55859 0.042969 1.0977 0.11719 1.6641 0.19531 0.70703 0.097657 1.4375 0.19531 2.2266 0.23438 0.84766 0.042968 1.5078 0.050781 2.3125 0.054687 0.77734 0.57031 1.4375 1.1445 2.0781 1.6992 1.2773 1.1133 2.4883 2.1641 4.4492 3.0781 1.0156 0.47266 1.3828 0.66797 1.7109 1.3047 0.32422 0.63672 0.24609 1.4688-0.19141 2.0312-0.27734 0.35547-0.57031 0.64844-0.87891 0.96094-0.13281 0.13672-0.26953 0.27344-0.40625 0.41797-0.6875-0.25781-1.3789-0.64844-2.0078-1.1523-0.48438-0.39062-0.99609-0.75781-1.5117-1.1211-1.0898-0.77344-2.1133-1.5-2.832-2.4648-1.3711-1.8438-3.5273-2.0547-5.0312-2.0547-0.42969 0-0.79688-0.019532-1.1445-0.039063-0.59766-0.035156-1.2109-0.066406-2.0039 0.003907-0.23438 0.019531-0.45312 0.054687-0.66406 0.09375 0.050781-0.097657 0.10156-0.20313 0.15234-0.30859zm0.6875 2.2148c0.64844-0.058594 1.1445-0.03125 1.7188 0.003906 0.38281 0.019531 0.78516 0.042968 1.2578 0.042968 1.75 0 2.7773 0.37109 3.4258 1.2461 0.90625 1.2148 2.1094 2.0703 3.2773 2.8984 0.48047 0.34375 0.96094 0.68359 1.4141 1.0469 0.66406 0.53125 1.3906 0.96094 2.1328 1.2852l-3.7188 0.41016c-0.48828-0.50781-1.1172-0.77344-1.8398-0.79297-0.92969 0.03125-2.5508-0.21875-3.1641-1.9766-0.66797-1.9062-3.0547-2.9531-4.8828-2.8242-0.41406 0.027344-0.76562 0.30859-0.88672 0.70703-0.26172 0.86328-0.40625 1.6367-0.45312 2.3438-0.22266-0.23437-0.46484-0.42187-0.71094-0.57031-0.23438-1.1602-0.074219-2.4141 0.48047-3.457 0.29297-0.046875 0.57031-0.10938 0.83984-0.16797 0.37891-0.082031 0.74219-0.16406 1.1094-0.19531zm-5.3086 18.219c-0.59375 0.37109-1.1523 0.72266-1.7227 0.84766l-0.25391 0.058594c-0.035157 0.007812-0.074219 0.019531-0.11328 0.027343-0.070313-0.65625-0.11719-1.3125-0.15234-1.9727 0.48047 0.17188 0.98438 0.28516 1.4961 0.28516 0.14844 0 0.29687-0.023437 0.44531-0.039062l0.50391 0.67188c-0.066406 0.039062-0.13672 0.078125-0.20312 0.12109zm0.30078-2.9492s-0.35156 0.17578-0.85156 0.15234c-0.007812 0-0.011719 0.015626-0.019531 0.019532-0.60938 0.046875-1.2422-0.15234-1.7227-0.54297 0.070313-6.2578 1.7617-12.48 4.9141-17.898 0.23828-0.41016 0.49219-0.80078 0.73828-1.1992-0.16406 0.34766-0.35156 0.73047-0.53516 1.1055-0.39062 0.80078-0.76172 1.5547-0.98047 2.0938-0.86719 1.3672-1.2305 3.0117-1.0469 4.6094-0.18359 0.074219-0.35938 0.16406-0.52734 0.29297-0.91406 0.70312-1.3984 1.9727-1.2695 3.3086 0.023438 0.22656 0.027344 0.46094 0.03125 0.69531 0.015625 0.76562 0.035157 1.6289 0.51172 2.4102 0.88281 1.4531 2.0391 2.6992 3.3828 3.7148-0.23047 0.11719-0.44922 0.23437-0.66406 0.35156-0.67188 0.35547-1.2734 0.67578-1.9609 0.88672zm1.4727 1.5859c0.50781-0.21875 0.97266-0.46484 1.4297-0.70703 0.39844-0.21484 0.8125-0.43359 1.2695-0.64453 0.13672-0.0625 0.24609-0.15234 0.33594-0.25781 0.015625 0.007813 0.03125 0.019531 0.046875 0.027344 0.63281 0.32812 1.0625 0.60547 1.5 0.89844-1.4453-0.050781-2.8555 0.26563-4.3672 0.96094z"/>
 </g>
</svg>