<svg xmlns="http://www.w3.org/2000/svg" xmlns:xlink="http://www.w3.org/1999/xlink" version="1.1" x="0px" y="0px" viewBox="0 0 504 586.7537500000001" style="enable-background:new 0 0 504 469.403;" xml:space="preserve"><path d="M461.999,118.998c-2.706-3.976-5.754-7.839-9.12-11.552c1.758-11.903,0.387-21.668-4.052-27.258  c-9.746-12.272-35.729-9.228-56.819-4.13c-0.03-0.037-0.058-0.076-0.088-0.114l-18.225-22.167  c-8.621-10.485-23.124-14.011-35.457-9.207C334.72,32.651,323.462,3.115,297.68,0.23c-26.82-3.002-51.146,24.16-58.099,32.731  c-11.46-4.676-24.004-7.99-35.343-6.997c-20.896,1.822-37.92,17.482-48.299,33.509c-6.967-12.569-14.333-19.426-21.95-20.378  c-13.588-1.704-27.68,11.999-34.87,20.314c-6.645,7.686-12.458,16.599-16.501,25.038c-5.177,2.132-21.908,9.948-36.06,26.887  c-2.163,2.59-4.082,5.392-5.799,8.294C14.093,133.281,0,149.451,0,166.44v83.523c0,49.272,26.384,95.508,74.292,130.19  c7.37,5.335,15.116,10.297,23.193,14.876c1.158,21.376,17.719,40.491,46.942,54.035c28.298,13.116,66.502,20.339,107.574,20.339  s79.275-7.223,107.574-20.339c29.269-13.565,45.838-32.719,46.949-54.136c16.754-9.464,31.916-20.452,44.945-32.719  C485.834,329.85,504,291.036,504,249.963V166.44C504,149.178,489.477,132.788,461.999,118.998z M467.213,149.563  c1.928,8.067-1.255,16.383-8.11,21.184c-8.779,6.149-23.194,15.179-43.113,24.286l-12.956-17.285  c0.349-0.11,0.696-0.212,1.046-0.331c23.856-8.098,39.683-35.984,45.986-57.405c0.266-0.903,0.507-1.794,0.743-2.682  C458.921,127.403,464.55,138.421,467.213,149.563z M94.357,166.468c4.282,3.677,11.97,5.665,20.715,5.664  c8.5,0,17.992-1.888,26.324-5.919c-1.14,16.383-8.517,29.908-22.381,41.149c-30.387-10.445-52.649-22.659-66.528-31.539  c9.467-11.474,20.59-18.471,33.838-21.263C88.902,159.953,91.695,164.182,94.357,166.468z M210.568,139.449  c2.443,5.161,9.417,18.507,21.182,30.504c-10.231,4.926-34.12,15.154-51.456,12.605c-16.846-2.475-26.314-16.211-29.674-22.158  c9.023-7.227,16.392-18.165,20.157-29.881C182.361,134.783,196.505,137.673,210.568,139.449z M288.022,133.25l9.974,12.448  c6.161,7.69,15.138,11.74,24.269,11.74c4.877,0,9.792-1.177,14.35-3.551c1.621,1.738,4.054,4.194,7.179,6.92  c-9.669,7.572-37.588,26.707-68.929,23.212c-29.457-3.287-47.803-30.878-54.74-43.527c9.187,0.848,18.075,1.236,25.9,1.236  c8.582,0,15.892-0.465,20.908-1.296C274.275,139.214,281.51,136.699,288.022,133.25z M148.791,172.067  c5.875,7.467,15.701,16.256,30.34,18.407c2.233,0.328,4.542,0.478,6.897,0.478c4.876,0,9.949-0.649,14.954-1.679  c1.815,15.328,9.02,28.183,21.495,38.388c-36.865-2.409-68.438-9.136-94.583-17.376  C139.583,199.561,146.577,186.764,148.791,172.067z M237.716,228.392c-17.663-10.097-27.151-23.551-28.895-41.038  c12.873-3.633,24.268-9.055,29.205-11.565c9.507,8.024,21.457,14.563,35.952,16.18c2.942,0.329,5.847,0.481,8.71,0.481  c4.418,0,8.723-0.378,12.898-1.025c1.527,15.711-4.706,27.694-18.95,36.528c-7.973,0.431-16.182,0.664-24.636,0.664  C247.158,228.618,242.401,228.538,237.716,228.392z M303.477,189.856c22.742-5.576,40.314-18.628,46.732-23.904  c9.641,7.091,22.981,14.086,38.114,14.086c2.015,0,4.062-0.13,6.136-0.395l14.023,18.708  c-29.025,12.404-68.298,24.311-117.527,28.593C300.931,217.158,305.131,204.739,303.477,189.856z M442.563,85.163  c4.176,5.259,4.109,18.051-0.169,32.59c-6.219,21.13-21.272,45.431-40.883,52.088c-25.972,8.815-49.766-11.987-57.97-20.331  l41.64-27.87c7.297-4.884,12.217-12.667,13.498-21.354c0.859-5.826,0.027-11.733-2.293-17.04  C420.163,77.817,437.254,78.478,442.563,85.163z M367.515,58.858l18.225,22.167c4.145,5.042,5.976,11.636,5.024,18.093  c-0.953,6.457-4.609,12.242-10.034,15.873l-45.524,30.471c-10.075,6.743-23.386,4.694-30.966-4.767l-9.333-11.647  c5.373-3.729,9.97-8.112,13.295-12.896c5.062-7.284,6.981-15.025,5.551-22.388c-1.03-5.302-5.516-11.809-11.832-18.522l35.75-21.521  C347.442,47.84,360.271,50.048,367.515,58.858z M296.79,8.181c21.942,2.455,31.665,31.152,34.203,40.224l-34.93,21.027  c-7.128-6.65-15.578-13.221-23.802-18.756c-5.374-3.617-14.444-9.315-25.053-14.348C254.888,27.314,275.606,5.813,296.79,8.181z   M204.933,33.934c1.06-0.092,2.156-0.138,3.287-0.138c15.501,0,37.421,8.605,59.575,23.517  c22.96,15.454,36.769,31.101,38.104,37.978c1.274,6.561-1.617,12.483-4.267,16.297c-7.149,10.287-21.282,18.511-36.006,20.951  c-24.991,4.143-100.707-2.064-112.099-22.712c-4.866-8.819-2.707-24.465,5.5-39.858C169.907,49.561,187.926,35.417,204.933,33.934z   M132.996,47.033c5.456,0.682,12.046,8.188,18.216,20.663c-8.924,17.501-10.751,35.008-4.689,45.994  c3.025,5.48,9.027,10.02,16.846,13.737c-3.531,11.534-11.036,22.257-20.11,28.505c-14.978,10.313-37.152,10.079-43.69,4.466  c-7.192-6.175-18.81-39.171-14.309-59.9C90.032,78.512,117.462,45.085,132.996,47.033z M78.314,95.456  c-0.335,1.141-0.638,2.265-0.873,3.345c-3.114,14.346,0.302,33.653,5.738,48.288c-14.523,3.435-27.074,11.568-37.391,24.277  c-0.054-0.037-0.111-0.076-0.164-0.113c-6.829-4.739-10.001-13.061-8.083-21.201c2.313-9.816,6.821-23.612,15.156-33.589  C61.44,105.998,71.406,99.283,78.314,95.456z M496,249.963c0,78.205-73.021,147.676-177.575,168.94  c-2.165,0.44-3.563,2.552-3.123,4.717c0.386,1.896,2.053,3.204,3.916,3.204c0.264,0,0.533-0.026,0.802-0.081  c27.882-5.671,54.289-14.946,77.886-27.154c-6.985,35.694-67.367,61.813-145.906,61.813c-78.459,0-138.801-26.066-145.886-61.705  c42.324,21.952,92.861,33.8,145.886,33.8c4.888,0,9.833-0.103,14.697-0.307c2.207-0.092,3.921-1.957,3.829-4.164  c-0.092-2.207-1.958-3.922-4.164-3.829c-4.752,0.199-9.585,0.3-14.362,0.3c-134.542,0-244-78.744-244-175.534V166.44  c0-11.785,9.183-23.51,26.711-34.276c-2.245,5.734-3.843,11.326-4.957,16.053c-2.677,11.361,1.762,22.983,11.309,29.608  c25.471,17.677,97.013,58.792,210.938,58.792c114.626,0,186.229-41.483,211.693-59.319c9.562-6.697,13.997-18.314,11.301-29.596  c-1.236-5.171-3.052-10.305-5.387-15.34C486.927,143.07,496,154.714,496,166.44V249.963z M170.112,100.013  c-1.163-1.876-0.588-4.338,1.287-5.503c0.964-0.599,23.958-14.646,52.412-12.25c28.967,2.443,43.422,22.05,44.023,22.884  c1.292,1.792,0.888,4.292-0.904,5.584c-0.708,0.51-1.526,0.756-2.336,0.756c-1.242,0-2.466-0.577-3.248-1.661  c-0.121-0.165-13.032-17.468-38.208-19.592c-25.739-2.17-47.307,10.943-47.521,11.076  C173.739,102.468,171.274,101.889,170.112,100.013z"/></svg>