<svg xmlns="http://www.w3.org/2000/svg" version="1.1" viewBox="-5.0 -10.0 110.0 135.0">
 <path d="m96.836 43.59c-0.074219-0.14844-0.26563-0.23047-0.41797-0.25781-1.9648-0.13672-3.9609-0.20703-5.9102-0.57422-0.078124-0.24219-0.14453-0.5625-0.38672-0.69531-0.40234-0.22656-2.5469 0.085938-3.0586 0.14453-0.1875-0.27344-0.375-0.42188-0.72656-0.40234 0.33203-0.54297 0.84375-1.0234 1.2148-1.5547 0.49609-0.70703 2.4688-4.0078 2.3281-4.7734-0.14062-0.48437-0.78516-0.41406-1.1836-0.44922 0.98438-2.0508 1.9531-4.7852 2.3008-7-0.12109-0.46094-0.69922-0.35156-1.0508-0.28516 0.32031-1.9062 0.42969-3.707 0.34375-5.6445-0.015624-0.35547 0.003907-1.0234-0.20703-1.3164-0.23438-0.32031-0.6875-0.046875-0.97656 0.046875 0.027343-2.3711-0.097657-4.832-0.78906-7.0898-0.14453-0.17188-0.36328-0.125-0.5625-0.11719-0.14453-0.25781-0.21875-1.9258-0.30078-2.3945-0.37891-2.1523-1.0352-4.207-1.7852-6.2539-0.17188-0.41406-0.4375-1.668-0.98438-1.6953-3.0977 1.375-6.1211 3.0352-8.9492 4.9102-0.16406-0.22266-0.45312-0.73047-0.73828-0.78516-0.29688-0.054688-0.80078 0.29297-1.0547 0.4375-1.7227 0.97266-3.3086 2.1758-4.7266 3.5508-0.14062-0.15625-0.44531-0.57031-0.66016-0.58984-0.46094-0.035156-1.9336 1.4531-2.3164 1.8281-0.79297 0.80078-1.5352 1.6445-2.2188 2.5391-0.49609-0.87891-0.89062-0.66797-1.4688-0.007813-1.6094 1.7734-2.9258 3.8086-3.8828 6.0039-0.20312-0.13672-0.40234-0.28516-0.62109-0.40234-1.2031 1.5-2.3125 4.1602-2.8945 6.0078-0.17969-0.039062-0.28125-0.21094-0.51172-0.14453-0.46484 0.125-1.4297 2.1445-1.625 2.6016-0.56641 1.3242-0.83984 2.7188-0.98828 4.1445-0.23828-0.0625-0.47266-0.14453-0.71875-0.11328-0.80078 0.6875-0.83984 2.0234-1.0273 3.0039-0.45703-0.44922-2.6406-2.6562-3.1562-2.6445-0.19141 0.007812-0.34766 0.14844-0.46094 0.29297-0.81641-0.75781-3.3555-2.7969-4.4258-2.8594-0.24609 0.085938-0.37109 0.30078-0.50781 0.50781-1.0039-0.77734-3-2.1367-4.207-2.3672-0.23438 0.019532-0.37891 0.21484-0.51953 0.38281-0.30078 0.089843-3.793-1.5312-4.5859-1.3945-0.26172 0.058593-0.33203 0.35937-0.41797 0.57812-1.6016-0.57812-3.3242-0.88281-4.8125-1.7461-0.20703-0.10547-0.44922-0.24609-0.68359-0.14453-0.16406 0.074218-0.29688 0.30078-0.38672 0.44922 0.38672 1.7891 0.82812 3.0273 0.89844 4.9102-0.22656 0.0625-0.5625 0.13281-0.68359 0.35547-0.35547 0.64453 0.74609 3.6875 0.98828 4.4258-0.35937-0.046874-0.66406 0.039063-0.83594 0.38281 0.28906 1.6562 1.4844 3.3008 2.5586 4.5508-0.32422 0.039063-0.84375 0.10938-0.68359 0.55469 0.4375 1.1523 2.1992 2.75 2.8789 3.8359-1.6562 0.37891-5.4688 1.457-6.7578 2.2383-0.24609 0.56641 0.52344 0.98047 0.94141 1.1914-2 0.61719-3.7852 1.543-5.4844 2.7617-0.57812 0.37109-1.7852 1.2109-0.66406 1.7227-1.7383 1.1016-3.332 2.4297-4.7266 3.9453-0.23438 0.25-0.69922 0.67578-0.75781 1.0156-0.082031 0.44141 0.41016 0.64062 0.73438 0.78125-1.8086 1.4102-3.875 3.2227-4.8555 5.3047-0.10938 0.46094 0.45703 0.58203 0.77734 0.71875-1.3516 1.6016-2.3086 2.9336-3.1094 4.9023-0.23438 0.59375-0.65234 1.3008 0.082031 1.7148-0.44141 0.76953-2.3438 4.5195-2.0898 5.2422 0.09375 0.26953 0.37109 0.30859 0.60547 0.39844-0.9375 1.8633-1.2617 3.793-1.4336 5.8516-0.007812 0.42578-0.28125 1.1445 0.16797 1.4102 0.10938 0.054688 0.24219 0.082031 0.35547 0.12109-0.35938 1.668-0.75781 3.3242-1.1914 4.9727-0.16016 0.91016-0.88281 2.3633-0.61719 3.2148 0.15234 0.28516 0.50391 0.41016 0.78906 0.24219 0.80469-0.48828 1.6016-0.99609 2.4844-1.3438 2.9023-1.207 5.3008-1.0391 8.2812-1.4922-1.293 1.9492 6.5664 1.1406 7.3086 0.94531 0.5-0.10156 1.707-0.50391 2.0547-0.5 0.035157 0.25 0.11719 0.40234 0.28906 0.58203 2.0547 0.16406 5.6758-1.1367 7.4922-2.2383-0.035156 1.457 1.3711 0.64062 2.1172 0.30859 1.7305-0.76562 3.5898-1.6758 4.9766-2.9922 0.09375 0.17188 0.18359 0.39453 0.37891 0.46875 0.25391 0.09375 0.55078-0.074218 0.76172-0.20312 1.8008-1.2305 3.5391-2.5039 4.9883-4.1484 0.10938 0.50781 0.1875 1.0703 0.38672 1.5508 2.2227-1.5195 3.7148-3.6094 4.8633-5.9883 0.19141 0.10938 0.43359 0.34766 0.67578 0.26562 0.10156-0.035156 0.21094-0.13672 0.29297-0.19922 0.44922 0.55469 0.48438 3.6328 1.9609 1.9727 0.28125 0.78516 1.832 4.8555 2.4531 5.1953 0.48828 0.22656 0.85156-0.37109 1.1094-0.69531 0.39453 0.71094 2.1641 3.832 2.8594 4.0117 0.35156 0.078125 0.62891-0.21484 0.90234-0.39453 0.59375 0.66406 2.6367 2.9336 3.4727 2.9062 0.3125-0.011719 0.46875-0.31641 0.62109-0.54688 1.1797 0.85938 2.4688 1.5703 3.8281 2.1016 0.38672 0.15625 1.082 0.51562 1.2734-0.074219 1.793 0.64844 3.1758 1.918 4.6758 3.0352 0.14453 0.09375 0.26172 0.125 0.43359 0.082031 0.17969-0.14844 0.19922-0.29688 0.22266-0.51953 0.070312-2.6484 0.64453-5.2461 1.0898-7.8555 0.28906 0.21875 0.70313 0.39062 0.85156-0.066406 0.32422-0.78906 0.47266-3.6055 0.40625-4.5156 0.27734 0.089844 0.75391 0.14453 0.77344-0.25781 0.10156-0.99219-0.51562-3.0742-0.76172-4.0977 0.17188-0.023437 0.35547-0.027344 0.5-0.12891 0.11719-0.19141 0.11328-0.26953 0.058594-0.49219-0.32422-1.3516-1.1445-3.043-1.7383-4.3203 0.16406-0.10547 0.36719-0.089844 0.51172-0.22656 0.074219-0.14453 0.078125-0.20313 0.023437-0.35938-0.53125-1.4414-1.9609-3.4961-2.8359-4.7812 1.2422-0.29297 0.054687-1.3047-0.31641-1.8555 0.83594 0.050781 3.2734 0.19922 3.8828-0.38672 0.09375-0.089844 0.125-0.16016 0.15234-0.28125-0.035156-0.17969-0.10156-0.32031-0.18359-0.48438 0.71094-0.125 5.8789-0.71484 4.6523-1.9922 0.65625-0.16406 3.1172-0.76172 3.4727-1.3359 0.10938-0.17578 0.046875-0.45703 0.015625-0.65234 0.65625-0.32812 4.1445-1.3633 2.9961-2.457 0.53516-0.41406 3.2461-2.5273 3.2734-3.0938 0.007812-0.25391-0.23438-0.40234-0.42578-0.51562 0.38281-0.58594 2.1094-3.0078 2.0234-3.4766-0.03125-0.17578-0.21484-0.32422-0.33594-0.44531 0.19531-0.57031 1.5898-3.8906 1.4883-4.2227-0.035157-0.11328-0.17188-0.21875-0.26172-0.28906 0.38281-1.4062 1.2812-2.4922 2.2891-3.4961 0.09375-0.14063 0.15234-0.35547 0.070313-0.51563zm-10.727-34.383c0.22656 0.90234 0.41016 1.8125 0.55469 2.7344 0.085938 0.5625 0.074219 2.5273 0.26172 2.8164 0.28125 0.16016 0.41797-0.019531 0.69531-0.089843 0.6875 2.1992 0.64844 4.6328 0.60547 6.9297 0.20703 0.42578 0.82813 0.14844 1.168 0.054688 0.30078 2.1797-0.058593 4.4102-0.37891 6.5391 0 0.51953 0.69531 0.43359 1.0469 0.39844-0.375 1.5312-0.85547 3.0391-1.4336 4.5039-0.22656 0.57422-0.79688 1.5273-0.89844 2.0781-0.058594 0.59766 0.71875 0.66797 1.1484 0.72656-0.67578 2.3242-2.4766 4.5469-4.0781 6.2812-0.0625 0.58594 0.70312 0.58203 1.1094 0.60547-0.84375 1.2852-1.7266 2.5-2.8086 3.6016-0.28125 0.28906-1.5352 1.3125-1.5781 1.5859-0.019532 0.125 0.015624 0.20703 0.082031 0.30469 0.28516 0.20312 0.67188 0.10938 1 0.085937-0.91406 1.2812-2.0898 2.4258-3.3398 3.3867-0.30469 0.23438-1.8594 1.2461-1.9297 1.4531-0.10938 0.38281 0.35156 0.51953 0.64453 0.55859-2.3125 2.3828-5.7812 3.6055-8.8789 4.582 0.30859 0.23828 0.64063 0.38672 1 0.53125-0.87891 0.67969-3.2266 1.4766-4.3164 1.3477-0.60938-0.070312-1.2422-0.45703-1.832-0.64844-2.2969-0.73438-3.9453-0.81641-6.332-0.53516-0.46094-1.332-1.0703-2.6445-2.2812-3.4453l0.82812-0.95703c2.1758-0.27734 4.6289 0.85156 6.8125 0.88672 4.2383 0.26172 8.3516-2.0664 10.711-5.5352-3.0469 3.2227-7.2734 5.5156-11.824 4.7891-1.8945-0.29297-3.2266-0.78125-5.2461-0.86328 1.082-1.3086 2.0273-2.7344 3.1172-4.0312 4.2656-0.066406 8.5312-0.76172 12.5-2.3711 3.918-1.5117 10.051-4.6914 11.82-8.6953l-0.023438-0.035156c-4.9492 6.9648-15.594 10.18-23.824 10.355 2.0859-2.8633 3.9453-5.9062 5.6953-8.9883 4.2656-0.14063 8.3438-1.5273 11.859-3.9453 3.4062-2.1367 6.5039-4.7422 7.8672-8.6641-2.7695 5.1602-8.8789 9.2109-14.316 11.09-1.6289 0.43359-3.3398 0.44922-4.9844 0.82422 2.8008-4.5039 4.9492-9.3633 7.3359-14.086 4.3945-2.3438 10.211-6.4375 11.625-11.488l-0.046875-0.046875c-2.1328 4.6523-6.9922 8.1289-11.285 10.695 3.0938-6.8477 6.8242-13.375 10.555-19.895 0.44531 0.44141 1.3906 3.8438 1.5742 4.5859zm-34.84 31.648c-0.25781-2.125-0.33203-4.5234 0.40625-6.5547 0.42188 0.21875 0.78906 0.52734 1.2109 0.75 0.0625-2.5273 0.41797-5.082 1.9023-7.2031 0.28516 0.30469 0.57422 0.52344 0.93359 0.73438 0.36328-2.3008 1.2188-4.5664 2.5586-6.4883 0.25391 0.20312 0.48828 0.4375 0.72266 0.66016 0.96094-2.5898 2.3477-5.0469 4.2656-7.0469 0.27344 0.32422 0.49609 0.68359 0.82031 0.96094 1.2344-1.7422 2.5859-3.4336 4.2969-4.7578 0.32422 0.25 0.58984 0.55859 0.92969 0.78906 1.3359-1.5469 3.6055-3.5117 5.5039-4.2461 0.24609 0.36719 0.47266 0.69141 0.82031 0.97266 2.6133-2.043 5.5977-3.5586 8.6094-4.9219-3.8125 6.1445-7.8359 12.504-10.816 19.164-0.94531-4.3438-0.76562-8.9336 0.42188-13.207-2.1211 4.4219-1.9648 9.5703-0.87891 14.246-2.2305 4.8516-4.6289 9.6367-7.2539 14.289-3.0156-6.1602-3.3672-12.512-1.0352-18.945l-0.027344-0.046875c-3.3633 6.7422-2.3945 13.223 0.69141 19.855-2.082 3.0664-3.918 6.4297-6.2852 9.25-0.10156-0.085937-0.13281-0.23438-0.18359-0.35547-1.7539-4.9531-2.6758-10.883-1.1836-15.988-2.1094 4.6719-1.3203 10.156 0.11719 14.918 0.20312 0.66797 0.41406 1.6328 0.82031 2.1992-1.0781 1.5039-2.2695 2.957-3.4414 4.3867-0.19922-2-0.88281-3.9492-2.2031-5.4883-0.39453-0.46094-0.94141-0.83984-1.2578-1.3594-0.90234-1.4688-1.332-3.375-1.668-5.0469 0.48828 0.16797 0.97656 0.35547 1.4883 0.44922-0.078126-0.66016-0.20703-1.3125-0.28906-1.9727zm-20.27-11.438c0.38672 0.10938 1.3438 0.72266 1.6641 0.55078 0.22656-0.21094 0.21484-0.46094 0.23828-0.75 1.543 0.30859 3.0352 1.0547 4.4609 1.6328 0.13281 0.027344 0.15625 0.003907 0.25391-0.070312 0.058593-0.14062 0.10547-0.32031 0.24609-0.40234 0.80078-0.058594 3.5898 2.1289 4.4727 2.5742 0.28125-0.28125 0.32031-0.39062 0.34375-0.78906 1.5977 0.76953 2.8945 2.0391 4.1836 3.207 0.17188-0.1875 0.30078-0.37109 0.42969-0.58594 1.0586 0.80078 1.9766 1.8359 2.9648 2.7227-0.015624 1.3477 0.078126 2.6641 0.18359 4.0078-0.26953-0.078125-1.043-0.48438-1.1914-0.11328-0.375 0.8125 0.61328 3.8867 0.92578 4.8359-0.83594-0.46875-1.668-0.96094-2.5352-1.3633 0.13672-3.3164-0.75391-6.2578-3.1445-8.5977 1.7461 2.3516 2.9883 5.9609 2.2656 8.8789-0.81641-0.43359-1.6406-0.72656-2.5195-0.99609-0.66797-0.18359-1.3438-0.32422-2.0234-0.45703-0.26953-3.9375-0.5625-8.4531-4.1406-10.906 2.668 2.6641 3.3672 6.5117 3.3711 10.148-1.2578-1.3828-3.0781-2.9375-4.1602-4.4062-0.35156-0.61719-0.45312-1.4609-0.66406-2.1406-0.71875-2.2461-1.6602-4.4766-3.2539-6.2422 1.1055 2.4102 2.2617 4.7891 2.9258 7.375-2.9609-2.9141-5.6523-6.1016-8.5352-9.0977 0.66016 0.078125 2.5469 0.72266 3.2344 0.98047zm-1.3477 13.457c0.28125-0.042969 0.60547-0.066406 0.84375-0.23828 0.035156-0.15234-0.003906-0.25391-0.089844-0.38281-1.1445-1.2852-2.1641-2.6758-2.8047-4.293 0.34766-0.011719 0.59375-0.066407 0.90234-0.23828-0.35156-1.5469-1.1953-3.0078-1.3672-4.6289 0.21484-0.078125 0.57812-0.17969 0.69922-0.39453 0.35937-0.63672-0.28906-3.2852-0.45703-4.1289 0.66016 0.35547 4.0234 4.625 4.8086 5.5273 1.2539 1.4414 2.5469 2.8867 3.8828 4.2539-2.5859-0.09375-5.3203-1.3672-7.1602-3.1523 1.4609 2.6797 4.8594 3.9141 7.7812 3.8516 1.4375 1.4844 2.8477 3.0039 4.3086 4.4688-0.91797-0.058593-1.8398-0.11328-2.7578-0.042969-0.26172 0.027344-0.37109 0.12109-0.53516 0.32031-2.0859 0.019531-4.0742-0.55469-5.8672-1.6094 2.0156 1.7812 3.3906 2.2812 6.0781 2.2617 0.17578 0.19531 0.30469 0.40234 0.4375 0.62891-2.3867-0.39844-4.4336-0.40234-6.793 0.1875-0.67188-0.76562-1.2852-1.5938-1.918-2.3945zm-25.383 49.633c0.74609-2.625 1.2422-5.3203 2.0391-7.9297-0.17969-0.17578-0.67969-0.14453-0.92188-0.15625 0.26953-2.9688 0.74219-4.5273 1.9844-7.2227-0.3125-0.070313-0.63672-0.097657-0.95312-0.13281 0.59766-1.9609 1.5938-3.9805 2.9062-5.5586-0.42578 0.023438-0.83594 0.10156-1.2539 0.18359 0.45313-1.6836 1.5312-3.3047 2.6562-4.6133 0.42188-0.49219 0.97266-0.95312 1.2422-1.5508-0.375-0.20312-0.76953-0.30469-1.1797-0.41406 1.25-2.0234 3.2305-3.6992 5.168-4.9961 0.082031-0.082032 0.070313-0.10938 0.074219-0.21875-0.16406-0.375-0.74219-0.54297-1.0938-0.69922 1.0312-1.1875 2.2109-2.3242 3.4844-3.25 0.91016-0.66016 1.8672-0.90234 2.5742-1.7539-0.25781-0.26562-0.53516-0.44531-0.85156-0.625 2.0508-1.6992 4.5859-2.6992 7.1836-3.1602-0.42188-0.59766-1.0352-0.98047-1.6211-1.4023 2.5195-0.86328 5.0312-1.9023 7.7461-1.8242-0.26172-0.65625-0.49219-0.82031-1.1016-1.168 1.4648-0.52344 3.6094-0.36719 5.1602-0.15234 0.66406 0.058594 1.3633 0.37891 2.0195 0.20703 0.25-0.46484-0.37891-1.3164-0.59766-1.6992 1.9375 0 4.4844 0.37891 6.2852 1.0898 0.68359 0.26953 1.2969 0.64062 1.957 0.95312 0.13672 0.066407 0.21484 0.10547 0.35938 0.054688 0.11328-0.16797 0.10938-0.37109 0.12891-0.56641 2.7109 1.4531 5.2773 3.3008 6.2344 6.375 0.125 0.39844 0.60156 2.2734 0.44141 2.5742-0.20703 0.082032-0.44922 0.066407-0.66797 0.078126-5.0039-4.9648-12.914-6.2188-19.66-5.3008 6.6641 0 13.656 0.75 18.785 5.457-2.7617 0.84375-5.4375 1.9453-8.082 3.0859-7.5078-2.6836-16.582-3.5977-23.699 0.58594 7.4727-2.9844 15.215-2.8555 22.773-0.14453-3.9453 1.957-7.7461 4.2031-11.359 6.7188-6.2461-1.7109-15.355-2.0586-18.879 4.5156 1.3984-1.707 3.1523-3.1055 5.2266-3.9062 3.9648-1.4336 8.8516-1.2109 12.855-0.078125-2.6641 2.0117-5.2031 4.1797-7.7656 6.3125-5.1172-0.50781-11.828 0.26562-14.156 5.5781 2.9883-4.4727 8.5508-5.1602 13.492-4.957-2.6914 2.3008-5.1719 5-7.7148 7.4492-0.35156 0.23047-1.3711 0.29297-1.8164 0.41016-1.5625 0.41016-4.4102 1.7188-5.4609 2.9648 0.13281-0.027344 1.5859-0.99219 1.8828-1.1406 1.4883-0.75391 2.9883-1.1484 4.625-1.4258-3.6602 3.5664-7.3594 7.3984-10.453 11.465zm46.691-14.242c-0.30859-0.48828-0.57422-1-0.85156-1.5039-0.67969 2.582-2 4.9375-4.0273 6.6992-0.15625-0.62891-0.28125-1.3008-0.54297-1.8945-1.9922 2.4219-3.0391 3.3555-5.668 5.0742-0.046875-0.31641-0.0625-0.67969-0.27734-0.92969-0.22266-0.082032-0.53125 0.32812-0.69141 0.48828-1.6484 1.6367-3.832 2.8359-6.0156 3.6055 0.019531-0.61719-0.039063-1.1719-0.14844-1.7734-1.8984 2.168-4.8359 2.8945-7.5781 3.3242 0.011719-0.28516 0.011719-0.56641 0.003906-0.84766-0.085937-0.13672-0.1875-0.26562-0.28516-0.39453-0.89062 0.72266-1.9922 1.0547-3.1094 1.2148-1.9883 0.35156-3.9023 0.42969-5.9062 0.11719 0.28516-0.52344 0.82422-1.1055 0.72656-1.7266-0.046875-0.011719-1.8789 0.58984-2.1953 0.65625-1.1211 0.23047-2.2773 0.25391-3.418 0.375-2.1211 0.22656-3.8672 0.76172-5.832 1.582 4.0586-4.7422 8.375-9.3125 12.934-13.574-0.24609 3.332-1.2695 5.9531-2.7852 8.8672 2.207-2.5938 3.2891-6.2188 3.5156-9.5703 2.8945-3.0234 6.1602-5.7305 9.3828-8.4023 1.4023 6.3555-1.0703 13.508-6.3477 17.391-0.67578 0.48047-1.3555 0.94531-2.0508 1.4023 7.3359-2.9062 10.906-11.836 8.9297-19.246 3.6094-3.0195 8.4688-6.2188 12.664-8.3438-0.58203 2.5234-0.72656 5.1055-1.0625 7.668-1.0312 7.4648-4.7656 13.219-10.723 17.727 6.0234-3.2305 10.18-9.9258 11.277-16.582 0.50781-3.1055 0.47656-6.1836 1.3438-9.2461 3.4219-1.7148 6.9219-3.2695 10.582-4.4102-1.4102 2.9414-1.457 6.2383-2.332 9.332-1.2656 4.707-3.6719 9.0391-6.7617 12.781l0.03125 0.023438c3.6523-3.5391 6.25-8.1914 7.5742-13.098 0.90625-3.0742 0.74219-6.3633 2.3984-9.2188 5.2383 1.5078 3.9609 12.57 1.3359 15.98-0.33203-0.39844-0.61719-0.83594-0.91406-1.2617-0.87109 2.793-1.3281 5.3164-3.1758 7.7148zm21.562 15.719c-0.98828-0.66797-2.2109-1.2344-3.3555-1.5859-0.058594 0.15234-0.10547 0.31641-0.15234 0.47266-1.6523-0.54297-3.043-1.5664-4.4258-2.5742-0.28906 0.24219-0.47266 0.47656-0.65234 0.80078-1.2852-0.76172-2.1836-2.0703-3.1758-3.1484-0.30859 0.17969-0.59375 0.41016-0.87891 0.62109-1.1953-1.3438-2.1406-2.9727-2.6445-4.6953-0.49219 0.35156-0.78516 0.83594-1.1562 1.3047-0.91406-1.7773-1.8906-3.6211-2.2148-5.6211-0.41797 0.23828-0.77734 0.55469-1.1328 0.87891-0.30469-0.74219-0.42969-1.4961-0.53516-2.2852 1.1562-2 1.6406-3.4297 2.332-5.6172 0.21094 0.17969 0.50391 0.49219 0.77734 0.23828-0.082032 2.4141 0.41016 4.7891 1.9805 6.7188-1.1055-2.4414-1.7656-5.1758-1.0469-7.8281 0.88281-1.8125 1.5156-3.7148 1.7891-5.7227 0.55859 0.37109 3.5039 5.0859 3.9062 5.8711-3.918 3.6992-3.668 10.109 0.35938 13.625-3.1094-3.9102-3.5977-9.3711 0.007813-13.129 1.1523 1.9805 2.4336 3.9102 3.4258 5.9766-2.625 3.3242-2.9609 7.8398 0.69141 10.555-2.6328-3.125-2.9023-6.6602-0.33203-9.9375 1.168 1.8945 2.2812 3.8555 3.3164 5.8242-1.1797 1.7539-0.64453 4.1641 0.61328 5.7266l0.12891 0.11719c0-0.32422-0.42578-1.082-0.55078-1.4219-0.44922-1.1992-0.47656-2.6406 0.0625-3.8086 1.5859 3.1328 3.1172 6.3477 4.2773 9.668-0.49219-0.30078-0.9375-0.69531-1.418-1.0195zm1.5938-23.219c0.53516 0.76562 1.0117 1.5742 1.418 2.418-0.52344 0.015625-0.64453 0.30469-0.4375 0.75781 0.64453 1.4141 1.4258 2.793 1.8828 4.293-1.3477-0.046875-0.19531 1.5547-0.066407 2.2148 0.21094 0.69141 0.30078 1.4531 0.42188 2.1641-0.23047 0.003907-0.60547-0.03125-0.70703 0.23047-0.14453 1.0352 0.22656 3.3594-0.30859 4.3555-0.25781 0.070312-0.50391-0.21094-0.75391-0.007813-0.074218 0.10547-0.12109 0.19922-0.14844 0.32812-0.16406 2.1719-0.75 4.3008-1.0039 6.4766-1.25-2.9258-2.6016-5.8047-4-8.6602 1.5938 0.72266 2.3438 1.6055 3.3086 3.0312-0.39844-1.8711-1.8359-3.1914-3.6211-3.75-1.1875-2.0039-2.2383-4.125-3.3359-6.1836 3.207 0.67969 5.4648 2.3711 7.2773 5.0664 0.24609 0.38281 0.49609 0.75781 0.75391 1.1289-1.082-3.8984-4.6523-6.4531-8.5391-7.043l-3.375-6.0312c2.7383-0.37891 5.7422 0.66406 7.8281 2.4375 1.5 1.2461 2.2891 3.0703 3.4219 4.6016-1.2539-4.9297-6.5703-8.7031-11.648-7.6719-1.2617-2.1133-2.6758-4.1367-4.0664-6.1641-0.078125-0.11719-0.21094-0.28516-0.20703-0.42578l0.097656-0.078125c3.7695-0.085937 7.2852 1.4297 10.621 3.0703-2.7383-2.6875-6.9531-3.6562-10.68-3.8438-0.03125-1.2188-0.16406-2.3711-0.375-3.5742 1.2188-0.13672 2.4492-0.23438 3.6641-0.03125 2.6758 0.40625 7.0195 2.3281 8.6445 4.5234l-0.87891 0.39453c0.95312 0.69141 3.418 2.2695 3.9141 3.1992 0.066406 0.12109 0.058594 0.16406 0.019531 0.29297-0.24609 0.24219-0.58203 0.26172-0.91016 0.32422 0.64844 0.67188 1.2461 1.3984 1.7812 2.1641zm20.613-25.668c-0.45703 0.67578-1.5156 2.6367-1.4453 3.4258 0.015625 0.14844 0.15625 0.22656 0.26172 0.32031 0.054687 0.21875-0.80469 2.375-0.95312 2.7344-0.24219 0.63281-0.86328 1.2422-0.26172 1.6289 0.19531 0.23828-1.8672 2.5703-1.918 3.1953-0.015624 0.20312 0.09375 0.32812 0.20703 0.47656-0.89453 0.93359-1.9805 1.6562-2.9688 2.4648-0.25 0.25781-0.078125 0.60938 0.11719 0.83984-1.043 0.70312-2.2969 0.95703-3.3906 1.5078-0.17578 0.21094-0.097656 0.48828 0.074219 0.67188 0.039063 0.050781 0.027344 0.019531 0.023437 0.089844-0.59375 0.375-1.5391 0.58984-2.2305 0.74219-0.5 0.14844-1.543 0.046876-1.6523 0.70703 0.0625 0.26953 0.21875 0.37109 0.44141 0.51953-1.418 0.58984-2.9727 0.5625-4.4414 0.88672-0.34766 0.25781-0.20703 0.72266 0.023438 1.0117-1.2656 0.15234-2.543 0.09375-3.8047-0.039062-0.50781-0.48047-1.043-0.90625-1.6172-1.3047l0.38672-0.3125c-1.2266-1.8477-2.6797-2.5234-4.3984-3.7383 1.4492-0.30859 2.8672-0.78125 4-1.7656 3.5 2.2734 7.7461 3.1719 11.676 1.4609-1.6328 0.26953-3.7539 0.32422-5.4219 0.20312-2.1914-0.23438-4.2812-1.1641-6.1523-2.3047 2.4922-0.97266 4.2852-1.8711 6.4922-3.3906 2.875 1.6445 6.7969 2.6875 9.9453 1.1992-3.3906 0.59766-6.4414-0.027344-9.4375-1.5977 0.53516-0.96484 1.7852-1.2969 2.7305-1.8047 0.87891-0.46875 1.7539-1.0859 2.6641-1.4727 2.9141 0.94922 5.5703 1.3945 8.1133-0.67578-3.082 1.2305-4.1641 1.0586-7.2891 0.24219 3.3789-2.1328 6.875-4.082 10.297-6.1445 0.054688 0.10547-0.011719 0.12891-0.074219 0.22266zm-3.5586 1.293c-1.1523 0.59375-2.2695 1.2539-3.418 1.8516 0.53906-1.6914 1.4062-2.8203 2.3672-4.2578-1.7383 1.1445-2.4023 2.5039-3.082 4.4102l-0.097656 0.34375c-2.6836 1.6016-5.2969 3.1914-8.1758 4.4375 1.5586-1.3359 3.457-2.5938 4.5234-4.3984 0.17188-0.29297 0.43359-0.69922 0.34766-1.0469-0.12109-0.14062-0.24219-0.13281-0.40625-0.20312 1.2031-1.4531 2.5938-2.8047 3.5273-4.4844 0.91797-0.003907 1.8398-0.21875 2.7617-0.19141 0 0.1875-0.035156 0.44922 0.097657 0.59766 0.12891 0.14453 1.0156 0.16016 1.2422 0.19141 1.5859 0.20703 3.1328 0.53516 4.7422 0.48438-1.4375 0.80859-2.9609 1.5078-4.4297 2.2656z"/>
</svg>