<svg xmlns="http://www.w3.org/2000/svg" xmlns:xlink="http://www.w3.org/1999/xlink" version="1.1" x="0px" y="0px" viewBox="0 0 100 125" style="enable-background:new 0 0 100 100;" xml:space="preserve"><path d="M32.7439156,69.8198242c-0.65625-0.8398438-1.0493164-1.7670898-1.1362305-2.6879883l-0.0092773-0.1035156  c-0.0722656-0.8129883-0.5800781-1.5273438-1.3256836-1.8637695c-0.7456055-0.3369141-1.6166992-0.2460938-2.2753906,0.2373047  c-0.0009766,0.0009766-0.0883789,0.0649414-0.0898438,0.0654297c-0.7421875,0.5400391-1.6972656,0.8583984-2.762207,0.9213867  c-5.1796875,0.3061523-10.5908203,4.7885742-13.4648438,11.1533203c-1.7998047,3.9853516-2.4355469,8.2324219-1.7895508,11.9560547  c0.6826172,3.9375,2.7041016,6.8486328,5.690918,8.1972656c1.1420898,0.515625,2.3574219,0.7607422,3.6025391,0.7607422  c5.2460938,0,11.0219727-4.3525391,14.0961914-11.1601563c2.8735352-6.3642578,2.6582031-13.387207-0.5361328-17.4755859  C32.7444038,69.8198242,32.7439156,69.8198242,32.7439156,69.8198242z M12.8469429,88.9853516  c-0.5449219-3.1386719,0.012207-6.7646484,1.5678711-10.2089844c2.4272461-5.3759766,6.8105469-9.1503906,10.9077148-9.3925781  c0.6242065-0.0371704,1.2284546-0.1359253,1.8040161-0.2907104L15.7415962,94.3046265  C14.2761421,93.1987305,13.2593575,91.364502,12.8469429,88.9853516z M30.5461617,86.0615234  c-2.850647,6.3119507-8.227417,10.1710205-12.5267334,9.2734375l11.3857422-25.2132568  c0.2646484,0.5350342,0.5904541,1.0534058,0.9754639,1.5457764C32.9070015,74.9018555,32.9734077,80.6855469,30.5461617,86.0615234z   M27.9758492,55.2197266h0.0004883c5.2026367-4.3842773,4.5092773-13.7978516-1.5463867-20.9838867  C21.8493843,28.7988281,15.246357,25.965332,9.9997749,27.184082c-1.09375,0.253418-2.144043,0.2211914-3.0336914-0.0932617  L6.8537788,27.050293c-0.7680664-0.277832-1.6352539-0.1196289-2.265625,0.4121094  c-0.6298828,0.5307617-0.9331055,1.3598633-0.7890625,2.1748047l0.0175781,0.0986328  c0.1601563,0.9360352,0.0146484,1.9780273-0.4208984,3.0126953c-2.0913086,4.9643555-0.418457,11.9521484,4.1621094,17.3891602  c3.9692383,4.7099609,9.2709961,7.3120117,13.9189453,7.3120117C23.9201851,57.449707,26.1833687,56.7304688,27.9758492,55.2197266z   M10.6784859,30.105957c4.1762695-0.965332,9.5844727,1.4667969,13.4575195,6.0625  c4.5774536,5.4330444,5.663208,12.1994629,2.7722168,15.8436279L8.6537056,30.3474121  C9.3169746,30.3418579,9.9953194,30.2644043,10.6784859,30.105957z M9.8518257,48.2045898  c-3.8725586-4.5966797-5.355957-10.3398438-3.6914063-14.2915039c0.2719727-0.6459961,0.463562-1.3011475,0.5814819-1.9539185  l18.2541504,21.6641846C20.913166,55.8543091,14.4294014,53.6369629,9.8518257,48.2045898z M43.9060249,52.1206055  c1.7280273,2.0512695,4.3427734,3.1347656,7.4853516,3.1347656c0.6054688,0,1.2314453-0.0405273,1.8735352-0.1220703  c3.7353516-0.4731445,7.652832-2.3012695,11.0317345-5.1479492c5.4819336-4.6196289,8.3730469-10.8676758,7.3642578-15.9165039  c-0.2021484-1.015625-0.1328125-2.0053711,0.2070313-2.8740234l0.0361328-0.0932617  c0.3056641-0.7705078,0.1669922-1.6391602-0.3623047-2.2666016c-0.5297852-0.628418-1.3623047-0.9091797-2.1743164-0.7412109  c-0.0019531,0.0004883-0.1049805,0.0214844-0.1069336,0.0219727c-0.9013672,0.1855469-1.8896484,0.0864258-2.8564453-0.2861328  c-2.1231689-0.8173828-4.6061363-0.9220581-7.188961-0.3885498c0.15271-1.1698608,0.2426758-2.3707886,0.2426758-3.6026611  c0-8.2255859-3.6201172-15.6518555-9.0078125-18.4799805c-0.0004883,0-0.0004883,0-0.0004883,0  c-1.175293-0.6166992-2.0976563-1.4711914-2.6723633-2.4790039l-0.0615234-0.1079102  c-0.4267578-0.7573242-1.2329102-1.2275391-2.1044922-1.2275391c-0.8710938,0-1.6772461,0.4702148-2.1040039,1.2275391  c-0.0009766,0.0014648-0.0649414,0.1142578-0.0654297,0.1157227c-0.5708008,1-1.4931641,1.8544922-2.6689453,2.4711914  c-5.3876953,2.828125-9.0078125,10.2543945-9.0078125,18.4799805c0,9.2765503,4.5330811,17.0560303,10.6086426,19.1390991  C41.4280586,46.5706787,41.9519234,49.8023071,43.9060249,52.1206055z M68.7190094,34.65625  c0.7851563,3.9311523-1.769043,9.1699219-6.3554649,13.0351563c-2.9418945,2.4785156-6.3071289,4.0644531-9.4755859,4.4658203  c-2.3568726,0.2974243-4.3411255-0.1061401-5.7513428-1.1235352l21.4157066-18.0450439  C68.5550079,33.5385132,68.6075592,34.0964966,68.7190094,34.65625z M46.8615913,6.4580078  c0.6424561,0.5950928,1.3713379,1.1251831,2.1938477,1.5566406c4.4277344,2.3237305,7.4023438,8.6831055,7.4023438,15.8237305  c0,1.5841675-0.1532593,3.1116943-0.4219971,4.5648804c-2.2471313,0.8936157-4.4904175,2.2351685-6.5667725,3.9849243  c-0.9472046,0.7979736-1.8136597,1.6557007-2.6074219,2.5499878V6.4580078z M45.3933296,43.2626953  c0.9331055-3.0546875,3.0668945-6.1020508,6.0083008-8.5805664c3.4741211-2.9267578,7.5263672-4.5712891,10.9140625-4.5712891  c1.0854492,0,2.1025352,0.1689453,3.0107384,0.5185547c0.5319824,0.2046509,1.0732422,0.3510742,1.6146851,0.4470825  L45.5254707,49.12146C44.7616768,47.5584106,44.6999092,45.5328979,45.3933296,43.2626953z M34.7649117,23.8383789  c0-7.140625,2.9746094-13.5,7.4018555-15.8237305c0.8217773-0.4309082,1.550293-0.9608154,2.1948242-1.5596313v31.8621216  c-0.3681641,0.6143188-0.6880493,1.2391357-0.9788208,1.8686523C38.4677925,38.5979614,34.7649117,31.8731079,34.7649117,23.8383789  z M97.4948883,53.4135742c-0.0009766-8.9013672-5.4130859-15.8891602-10.4394531-18.6147461  c-0.3984375-0.2163086-0.8408203-0.3686523-1.3144531-0.4526367c-0.0009766,0-0.0009766,0-0.0019531,0  c-1.2363281-0.21875-2.4873047,0.1152344-3.4160156,0.9174805c-0.9091797,0.7861328-1.4101563,1.9360352-1.3740234,3.1542969  c0.0848999,2.9177246,0.116394,5.8478394,0.1165771,8.7819824c-0.262146,0.0818481-0.515625,0.1794434-0.7503662,0.3068848  c-4.0602417,2.2016602-8.3671265,7.184082-9.8768921,13.7046509c-0.0131836-0.0115356-0.0274658-0.0201416-0.0405884-0.0317993  c-3.8789063-3.4448242-10.8740196-4.1025391-17.407711-1.6347656c-8.6459961,3.2666016-13.8012695,10.8969727-11.4921875,17.0097656  c1.5991211,4.2314453,6.3618164,6.6435547,12.0112305,6.6435547c2.5102539,0,5.1972656-0.4775391,7.8574219-1.4824219  c4.3112144-1.6289063,7.8640099-4.414856,9.9699669-7.5994263c2.1451416,5.7355347,6.4484253,10.3395386,11.5324707,11.6990356  c0.3007813,0.0791016,0.6054688,0.1181641,0.9072266,0.1181641c0.7900391,0,1.5595703-0.2666016,2.1669922-0.7705078  c0.8251953-0.6845703,1.2529297-1.6992188,1.1728516-2.7822266c-0.2455444-3.3343506-0.4160156-6.6853638-0.5518799-10.0401611  C92.8501129,69.4611816,97.5125275,61.6245728,97.4948883,53.4135742z M54.0505562,62.3515625  c2.3295898-0.8803711,4.7041016-1.3120117,6.9013672-1.3120117c3.0063477,0,5.6806602,0.8085938,7.4536095,2.3833008  c0.4673462,0.4151611,0.9640503,0.7727051,1.4810181,1.0702515l-25.8801231,9.7774658  C43.3789864,69.9232178,47.5706367,64.7994385,54.0505562,62.3515625z M60.3059273,78.909668  c-6.4784546,2.4474487-13.0119019,1.3764038-15.4158936-2.3001709l25.0219078-9.4535522  c0.038147,0.8380127,0.1134644,1.6707764,0.2438354,2.4921875C69.1631012,73.3726807,65.3570099,77.0011597,60.3059273,78.909668z   M84.0271149,82.8544922c-0.0449219,0.0371094-0.1748047,0.1181641-0.3857422,0.0615234  c-5.3076172-1.4189453-10.7861328-8.0869141-10.7675781-16.793457c0.0009766-7.6733398,4.5996094-13.6621094,8.8710938-15.9785156  c0.1132813-0.0620117,0.25-0.1069336,0.4042969-0.1347656c0.3554688-0.0625,0.6884766,0.0195313,0.9345703,0.2329102  c0.2265625,0.1962891,0.3466797,0.4794922,0.3378906,0.7978516c-0.3056641,10.4711914-0.0693359,21.090332,0.7021484,31.5615234  C84.1316071,82.7109375,84.1003571,82.7939453,84.0271149,82.8544922z M86.4476471,69.0177002  c-0.1771851-5.9751587-0.2006226-11.9559937-0.0279541-17.8902588c0.0361328-1.21875-0.4648438-2.3686523-1.3740234-3.1547852  c-0.2955933-0.2557373-0.6315308-0.4451904-0.9818726-0.6029663c0.0013428-3.0201416-0.0291138-6.0361938-0.1167603-9.0391235  c-0.0087891-0.3178711,0.1113281-0.6010742,0.3378906-0.7973633c0.1923828-0.1665039,0.4375-0.2529297,0.7050781-0.2529297  c0.0742188,0,0.1503906,0.0063477,0.2275391,0.0200195c0.1552734,0.0273438,0.2910156,0.0727539,0.40625,0.1352539  c4.2714844,2.315918,8.8701172,8.3041992,8.8710938,15.9814453C94.5102692,60.6265869,90.7522125,66.428894,86.4476471,69.0177002z"/></svg>