<svg xmlns="http://www.w3.org/2000/svg" viewBox="0 0 48 60" x="0px" y="0px"><g data-name="Strawberry Milk"><path d="M38.173,28.449a1.129,1.129,0,0,0-.13,0,1.953,1.953,0,0,0-.86.251c-.031.017-.063.035-.094.055-1.621.928-2.854,3.651-3.014,4.018a.492.492,0,0,0,.209.622.484.484,0,0,0,.249.068.514.514,0,0,0,.407-.2c.006-.008.647-.8,3.13-.823a.49.49,0,0,0,.077.006,2,2,0,0,0,.026-4Zm.039,3a.219.219,0,0,0-.066,0,8.682,8.682,0,0,0-2.409.3,6.774,6.774,0,0,1,1.7-2.036.49.49,0,0,0,.15-.082.97.97,0,0,1,.105-.065,1.12,1.12,0,0,1,.395-.11,1,1,0,0,1,.123,2ZM8.194,26.11a.571.571,0,0,0,.073,0c2.477.022,3.123.809,3.124.809a.5.5,0,0,0,.418.224.488.488,0,0,0,.238-.061.5.5,0,0,0,.219-.639c-.16-.368-1.4-3.112-3.033-4.029-.039-.024-.085-.051-.141-.083a1.867,1.867,0,0,0-.756-.21.885.885,0,0,0-.178,0,2,2,0,0,0,.036,4Zm.09-3a1.161,1.161,0,0,1,.332.093l.048.025a.652.652,0,0,1,.087.053.486.486,0,0,0,.154.085,6.819,6.819,0,0,1,1.7,2.035A8.682,8.682,0,0,0,8.2,25.1h0c-.02,0-.041,0-.061,0a1,1,0,1,1,.151-1.993ZM38.411,35.084a2.026,2.026,0,0,1,.116,2.27,3.952,3.952,0,0,1-4.167,1.7,1.97,1.97,0,0,0-1.446.079,1.5,1.5,0,0,0-.485,1.06,4.5,4.5,0,0,1-3.092,3.685.5.5,0,1,1-.241-.97,3.507,3.507,0,0,0,2.342-2.848,2.427,2.427,0,0,1,.893-1.74,2.841,2.841,0,0,1,2.219-.248,3.037,3.037,0,0,0,3.073-1.14c.233-.5.25-.944.042-1.177-.249-.279-.847-.3-1.559-.067-.128.043-.287.09-.468.144-1.144.339-3.274.97-4.407,2.64-1.588,2.339-4,1.1-5.936.107l-.325-.165a12.84,12.84,0,0,0-3.227-.971,15.175,15.175,0,0,1-3.5-1.038c-1.754-.835-1.99-1.93-2.289-3.318a14.866,14.866,0,0,0-.534-1.984c-.352-.984-.91-1.558-1.533-1.575a1.043,1.043,0,0,0-1.033.685c-.137.325.143.728.554,1.261a1.946,1.946,0,0,1,.612,1.409.982.982,0,0,1-.457.663c-1.162.775-2.1.194-3.96-.965l-.71-.439c-.945-.58-1.734-.781-2.106-.54-.228.147-.324.5-.263.981.035.272.242.358,1.166.482A3.417,3.417,0,0,1,10.4,34.379a2.39,2.39,0,0,0,1.314,1.039,2.627,2.627,0,0,1,1.661,1.564c.141.325.273.7.412,1.1.6,1.724,1.286,3.677,3.615,4.312a.5.5,0,1,1-.263.965c-2.837-.774-3.68-3.186-4.3-4.947-.131-.375-.253-.726-.385-1.031a1.665,1.665,0,0,0-1.125-1.037A3.377,3.377,0,0,1,9.56,34.922a2.571,2.571,0,0,0-2-.87C6.72,33.939,5.675,33.8,5.535,32.7a1.91,1.91,0,0,1,.711-1.947c.513-.332,1.481-.511,3.173.527l.715.442c1.783,1.109,2.273,1.385,2.877.983.016-.1-.23-.419-.393-.63-.445-.579-1.055-1.371-.684-2.257a2.1,2.1,0,0,1,1.983-1.3c.484.013,1.656.257,2.372,2.064.19.105.552.206,1.059-.266a2.591,2.591,0,0,0,.76-2.67c-.616-1.018-1.16-2.556-.665-3.541a1.512,1.512,0,0,1,1.3-.825,1.64,1.64,0,0,1,1.311.4c.774.7.773,2.087.772,2.83,0,1.328.58,2.733,1.875,3.01a3.476,3.476,0,0,0,1.766-.3,3.1,3.1,0,0,1,2.616-.108,1.688,1.688,0,0,1,.883,2.01,1.514,1.514,0,0,0,.008.774c.162.415,2.3.672,4.39.528a.51.51,0,0,1,.533.464.5.5,0,0,1-.464.534c-.37.025-.87.05-1.417.05-1.589,0-3.581-.209-3.973-1.211a2.4,2.4,0,0,1-.067-1.285c.077-.523.106-.719-.381-.991s-1.1-.063-1.8.18a4.292,4.292,0,0,1-2.3.335c-1.595-.341-2.666-1.92-2.666-3.929,0-.606,0-1.743-.445-2.149a.656.656,0,0,0-.543-.145c-.332.032-.44.166-.5.279a3.377,3.377,0,0,0,.627,2.575c.675,1.115.063,2.989-.934,3.919a2.083,2.083,0,0,1-1.39.612c.119.434.216.842.295,1.206.287,1.332.431,2,1.741,2.626a14.52,14.52,0,0,0,3.272.962,13.812,13.812,0,0,1,3.476,1.057l.328.168c2.215,1.137,3.634,1.719,4.651.22,1.334-1.966,3.687-2.662,4.951-3.037.169-.05.317-.094.437-.134A2.394,2.394,0,0,1,38.411,35.084Zm-8.908,6a3.231,3.231,0,0,1-2.018.812,3.479,3.479,0,0,1-2.126-.889c-.332-.261-.487-.218-1.01-.074a5.306,5.306,0,0,1-2.585.153,3.546,3.546,0,0,1-2-1.28,7.515,7.515,0,0,0-2.02-1.6c-1.374-.726-2.84-1.625-2.84-3.1a.5.5,0,0,1,1,0c0,.829.883,1.463,2.308,2.216a8.512,8.512,0,0,1,2.271,1.787,2.638,2.638,0,0,0,1.449.991,4.431,4.431,0,0,0,2.151-.131,1.845,1.845,0,0,1,1.9.252,1.983,1.983,0,0,0,2.9.079.5.5,0,1,1,.622.783Zm-.556-6.314a.5.5,0,0,1-.223.664,1.828,1.828,0,0,1-.773.173,1.6,1.6,0,0,1-.538-.092,1.768,1.768,0,0,1-1.007-1.021,1.524,1.524,0,0,0-1.888-1.024.5.5,0,0,1-.172-.986,2.5,2.5,0,0,1,2.975,1.607.826.826,0,0,0,.425.481.768.768,0,0,0,.536-.035A.5.5,0,0,1,28.947,34.769ZM12.746,4.876V4.613a.5.5,0,0,1,1,0v.263a.5.5,0,0,1-1,0Zm1.945,1.1a.5.5,0,0,1,0-.707l.185-.186a.5.5,0,0,1,.708.706l-.185.186a.5.5,0,0,1-.707,0Zm1.1.943h.262a.5.5,0,0,1,0,1h-.262a.5.5,0,0,1,0-1Zm-1.1,2.651a.5.5,0,0,1,.707-.707l.186.186a.5.5,0,0,1-.707.707Zm-1.944.654V9.959a.5.5,0,0,1,1,0v.263a.5.5,0,0,1-1,0ZM11.8,8.862a.5.5,0,0,1,0,.707l-.186.185a.5.5,0,0,1-.706-.708l.186-.185A.5.5,0,0,1,11.8,8.862ZM9.942,7.417a.5.5,0,0,1,.5-.5h.263a.5.5,0,0,1,0,1h-.263A.5.5,0,0,1,9.942,7.417Zm.968-1.629a.5.5,0,1,1,.707-.707l.186.186a.5.5,0,0,1-.354.853.494.494,0,0,1-.353-.146Zm7.838,6.13V11.6a.5.5,0,0,1,1,0v.319a.5.5,0,0,1-1,0Zm2.164,1.105a.5.5,0,0,1-.062-.7l.2-.245a.5.5,0,1,1,.766.643l-.205.244a.5.5,0,0,1-.7.062Zm-1.075,5.055a.5.5,0,1,1,.939-.342l.109.3a.5.5,0,0,1-.3.64.489.489,0,0,1-.171.03.5.5,0,0,1-.47-.329Zm-2.112-.342a.5.5,0,1,1,.939.343l-.109.3a.5.5,0,0,1-.47.328.486.486,0,0,1-.171-.03.5.5,0,0,1-.3-.641Zm-1.859-.775a.5.5,0,0,1,.183-.683l.277-.16a.5.5,0,1,1,.5.866l-.277.16a.5.5,0,0,1-.683-.183Zm.255-2-.314-.055a.5.5,0,0,1,.173-.985l.314.055a.5.5,0,0,1-.086.993A.521.521,0,0,1,16.121,14.964Zm.553-2.245a.5.5,0,0,1,.767-.643l.205.245a.5.5,0,0,1-.767.642Zm25.617-.393a1.029,1.029,0,0,0,.051-1.145A4.738,4.738,0,0,0,38.96,9.259c1.131-1.681,1.535-2.837,1.233-3.521a.974.974,0,0,0-.828-.578c-.876-.093-2.23.707-3.33,1.905-.58-1.733-1.36-2.787-2.2-2.935a1.023,1.023,0,0,0-1.054.451A3.429,3.429,0,0,0,32.892,7.6c-2.343-1.082-4.363-1.286-6.019-.562-2.589,1.135-4.2,4.42-4.78,9.766-.437,3.988-.2,8.774,1.78,10.247a4.354,4.354,0,0,0,2.588.672,17.7,17.7,0,0,0,5.246-1.05,17.4,17.4,0,0,0,.836,4.255.492.492,0,0,0,.47.334.5.5,0,0,0,.5-.556c0-.014-.1-1.4,2.361-3.667a.5.5,0,0,0,.07-.053,2.385,2.385,0,0,0,.7-2.478c3.451-1.9,5.307-4.063,5.485-6.431.128-1.707-.636-3.481-2.246-5.3a7.09,7.09,0,0,0,.868.065A1.875,1.875,0,0,0,42.291,12.326ZM35.33,26.192a.441.441,0,0,0-.064.05,10.459,10.459,0,0,0-2.231,2.7,9.582,9.582,0,0,1-.2-3.949.514.514,0,0,0,.051-.152.87.87,0,0,1,.024-.094,1.671,1.671,0,0,1,.349-.6l.059-.056a1.449,1.449,0,0,1,2.042.1,1.5,1.5,0,0,1,.207.3c0,.009,0,.018.008.027s.009.009.012.014a1.449,1.449,0,0,1,.155.707A1.423,1.423,0,0,1,35.33,26.192Zm.85-2.567c-.027-.034-.047-.072-.077-.1a2.448,2.448,0,0,0-3.431-.19l-.023.019c-.036.032-.07.065-.1.1a2.413,2.413,0,0,0-.564.922l-.015.046a4.861,4.861,0,0,0-.239,1.187c-3.4,1.192-6.17,1.447-7.26.644-1.329-.989-1.884-4.74-1.381-9.335.542-4.963,1.95-7.978,4.188-8.958,2.117-.928,5.045-.027,8.709,2.677,3.584,2.637,5.314,5.118,5.146,7.372C40.979,20.012,39.3,21.9,36.18,23.625Zm2.461-12.094a24.359,24.359,0,0,0-4.257-3.143,4.513,4.513,0,0,1-.843-3.09.352.352,0,0,1,.1-.185c.187-.03,1.043.61,1.7,3.125a.5.5,0,0,0,.889.168c1.2-1.654,2.762-2.388,3.049-2.264,0,.006.256.667-1.652,3.277a.5.5,0,0,0-.037.532.479.479,0,0,0,.465.262,4.482,4.482,0,0,1,3.134,1.093,1.848,1.848,0,0,1,.318.4S41.052,12.1,38.641,11.531Zm-10.974-.9a.5.5,0,0,1-.122-.7l.133-.19a.5.5,0,1,1,.82.574l-.134.191a.5.5,0,0,1-.7.122Zm4,2.314a.5.5,0,0,1-.123-.7l.134-.192a.5.5,0,1,1,.819.574l-.134.191a.5.5,0,0,1-.7.123Zm4.222,2.368a.5.5,0,0,1-.123-.7l.134-.191a.5.5,0,0,1,.819.574l-.133.191a.5.5,0,0,1-.7.123Zm3.03,2.837a.5.5,0,0,1-.123-.7l.134-.19a.5.5,0,1,1,.82.574l-.134.191a.5.5,0,0,1-.7.122Zm-2.292-.01a.5.5,0,0,1,.123.7l-.134.191a.5.5,0,0,1-.82-.575l.134-.19A.5.5,0,0,1,36.63,18.14Zm-4-2a.5.5,0,0,1,.123.7l-.134.191a.5.5,0,0,1-.82-.575l.134-.19A.5.5,0,0,1,32.63,16.14Zm-4.067-2.411a.5.5,0,0,1,.123.7l-.134.191a.5.5,0,1,1-.819-.574l.133-.191A.5.5,0,0,1,28.563,13.729Zm-2.4,2.507a.5.5,0,0,1,.122.7l-.133.191a.5.5,0,0,1-.82-.574l.134-.191A.5.5,0,0,1,26.159,16.236Zm2.122,3.7-.133.191a.5.5,0,0,1-.82-.574l.134-.191a.5.5,0,0,1,.819.574Zm3.878.3a.5.5,0,0,1,.122.7l-.133.191a.5.5,0,0,1-.82-.574l.134-.191A.5.5,0,0,1,32.159,20.236Zm4,1a.5.5,0,0,1,.122.7l-.133.191a.5.5,0,1,1-.82-.574l.134-.191A.5.5,0,0,1,36.159,21.236Zm-7,2a.5.5,0,0,1,.122.7l-.133.191a.5.5,0,0,1-.82-.574l.134-.191A.5.5,0,0,1,29.159,23.236Zm-4-2a.5.5,0,0,1,.122.7l-.133.191a.5.5,0,0,1-.82-.574l.134-.191A.5.5,0,0,1,25.159,21.236Z"/></g></svg>